STARTFONT 2.1
COMMENT
COMMENT Converted from OpenType font "uvn_baisau.ttf" by "otf2bdf 3.0".
COMMENT
FONT -FreeType-UVN Bai Sau-Bold-R-Normal--33-240-100-100-P-164-ISO10646-1
SIZE 24 100 100
FONTBOUNDINGBOX 46 47 -5 -9
STARTPROPERTIES 19
FOUNDRY "FreeType"
FAMILY_NAME "UVN Bai Sau"
WEIGHT_NAME "Bold"
SLANT "R"
SETWIDTH_NAME "Normal"
ADD_STYLE_NAME ""
PIXEL_SIZE 33
POINT_SIZE 240
RESOLUTION_X 100
RESOLUTION_Y 100
SPACING "P"
AVERAGE_WIDTH 164
CHARSET_REGISTRY "ISO10646"
CHARSET_ENCODING "1"
FONT_ASCENT 37
FONT_DESCENT 8
COPYRIGHT "(c) Copyright 2001 by Tom Truong. All Rights Reserved"
_OTF_FONTFILE "uvn_baisau.ttf"
_OTF_PSNAME "UVNBaiSauBold"
ENDPROPERTIES
CHARS 383
STARTCHAR 0020
ENCODING 32
SWIDTH 270 0
DWIDTH 9 0
BBX 0 0 0 0
BITMAP
ENDCHAR
STARTCHAR 0021
ENCODING 33
SWIDTH 300 0
DWIDTH 10 0
BBX 7 23 2 0
BITMAP
FE
FE
FC
FC
FC
7C
7C
7C
7C
7C
7C
7C
7C
7C
7C
7C
00
7C
FC
FE
FE
FC
7C
ENDCHAR
STARTCHAR 0022
ENCODING 34
SWIDTH 330 0
DWIDTH 11 0
BBX 9 9 1 14
BITMAP
F380
F380
F380
F380
F380
F380
F380
F380
F380
ENDCHAR
STARTCHAR 0023
ENCODING 35
SWIDTH 750 0
DWIDTH 25 0
BBX 25 24 0 0
BITMAP
001E1E00
001E1E00
003C3C00
003C3C00
003C7C00
00787800
00787800
0FFFFF80
0FFFFF80
1FFFFF00
01E1E000
01E1E000
01E1E000
03C3C000
3FFFFE00
7FFFFC00
7FFFFC00
FFFFF800
07878000
0F0F0000
0F0F0000
0F1F0000
1E1E0000
1E1E0000
ENDCHAR
STARTCHAR 0024
ENCODING 36
SWIDTH 540 0
DWIDTH 18 0
BBX 13 26 3 -1
BITMAP
0700
0700
0700
1FF0
3FF0
7FF0
7FF0
FC00
7C00
7E00
7F80
3FC0
1FE0
0FF0
03F8
01F8
00F8
01F8
7FF8
7FF8
7FF0
7FE0
7F80
0700
0700
0700
ENDCHAR
STARTCHAR 0025
ENCODING 37
SWIDTH 870 0
DWIDTH 29 0
BBX 27 23 1 0
BITMAP
1F801C00
3FC03800
7FE07800
79F07000
F0F0F000
F071E000
F0F1C000
F8F3C000
7FF38000
7FE70000
3FCF0000
060E1E00
001E7F80
003CFFC0
0038FFC0
0079E1E0
0071E1E0
00E1E1E0
01E1E1E0
01C1FFE0
03C0FFC0
07807F80
07003F00
ENDCHAR
STARTCHAR 0026
ENCODING 38
SWIDTH 750 0
DWIDTH 25 0
BBX 23 23 2 0
BITMAP
1FFF00
3FFF00
3FFF00
3FFF00
3FFF00
1F8000
0FC070
1FE0F0
3FF1F8
7FF9F8
FFF8F8
FCFCFC
FCFEFC
FC7FFC
F83FF8
FC1FF8
FC1FF8
FE0FF0
7FFFF0
7FFFF8
3FFFF8
0FFFFC
07FEFE
ENDCHAR
STARTCHAR 0027
ENCODING 39
SWIDTH 180 0
DWIDTH 6 0
BBX 4 9 1 14
BITMAP
F0
F0
F0
F0
F0
F0
F0
F0
F0
ENDCHAR
STARTCHAR 0028
ENCODING 40
SWIDTH 390 0
DWIDTH 13 0
BBX 10 32 2 -8
BITMAP
0100
0380
07C0
07C0
0F80
1F00
1E00
3E00
3C00
7C00
7800
7800
7800
7800
F800
F800
F800
F800
7800
7800
7800
7C00
7C00
3C00
3E00
1F00
1F00
0F80
07C0
03C0
0380
0100
ENDCHAR
STARTCHAR 0029
ENCODING 41
SWIDTH 390 0
DWIDTH 13 0
BBX 10 32 1 -8
BITMAP
2000
7000
F800
F800
7C00
3E00
3E00
1F00
0F00
0F80
0780
0780
0780
07C0
03C0
03C0
03C0
03C0
07C0
0780
0780
0780
0F80
0F00
1F00
1E00
3E00
7C00
FC00
F800
7000
2000
ENDCHAR
STARTCHAR 002A
ENCODING 42
SWIDTH 480 0
DWIDTH 16 0
BBX 12 11 2 12
BITMAP
0F00
2760
76E0
7EF0
7FF0
0700
FFF0
7EF0
7660
2720
0F00
ENDCHAR
STARTCHAR 002B
ENCODING 43
SWIDTH 810 0
DWIDTH 27 0
BBX 20 20 4 0
BITMAP
00F000
00F000
00F000
00F000
00F000
00F000
00F000
00F000
FFFFF0
FFFFF0
FFFFF0
FFFFF0
00F000
00F000
00F000
00F000
00F000
00F000
00F000
00F000
ENDCHAR
STARTCHAR 002C
ENCODING 44
SWIDTH 270 0
DWIDTH 9 0
BBX 7 10 1 -5
BITMAP
7E
7E
7C
7C
78
F8
F8
F0
F0
F0
ENDCHAR
STARTCHAR 002D
ENCODING 45
SWIDTH 330 0
DWIDTH 11 0
BBX 9 4 1 6
BITMAP
FF80
FF80
FF80
FF80
ENDCHAR
STARTCHAR 002E
ENCODING 46
SWIDTH 270 0
DWIDTH 9 0
BBX 7 6 1 0
BITMAP
3C
7E
FE
FE
7E
7C
ENDCHAR
STARTCHAR 002F
ENCODING 47
SWIDTH 270 0
DWIDTH 9 0
BBX 11 27 -1 -3
BITMAP
00E0
00E0
00E0
01C0
01C0
01C0
0380
0380
0380
0700
0700
0700
0E00
0E00
0E00
1C00
1C00
1C00
1C00
3800
3800
3800
7000
7000
7000
E000
E000
ENDCHAR
STARTCHAR 0030
ENCODING 48
SWIDTH 540 0
DWIDTH 18 0
BBX 17 24 1 0
BITMAP
03C000
0FF800
3FFC00
3FFE00
7FFF00
FF7F00
FC1F80
FC1F80
FC1F80
FC1F80
FC1F80
FC1F80
FC1F80
FC1F80
FC1F80
FC1F80
FC1F80
FC1F80
FE3F80
7FFF00
7FFF00
3FFE00
1FFC00
0FF000
ENDCHAR
STARTCHAR 0031
ENCODING 49
SWIDTH 540 0
DWIDTH 18 0
BBX 9 23 5 0
BITMAP
FF80
FF80
FF80
FF80
FF80
1F80
1F80
1F80
1F80
1F80
1F80
1F80
1F80
1F80
1F80
1F80
1F80
1F80
1F80
1F80
1F80
1F80
1F80
ENDCHAR
STARTCHAR 0032
ENCODING 50
SWIDTH 540 0
DWIDTH 18 0
BBX 16 24 1 0
BITMAP
03C0
0FF8
1FFC
3FFE
7FFE
7FFF
7C3F
7C3F
7C3F
7E7F
7EFE
3CFE
39FC
03F8
07F0
0FE0
1FC0
3F80
7F00
7FFF
FFFF
FFFF
7FFF
3FFF
ENDCHAR
STARTCHAR 0033
ENCODING 51
SWIDTH 540 0
DWIDTH 18 0
BBX 15 23 2 0
BITMAP
FFF8
FFFC
FFFC
FFFC
FFFC
01FC
03F8
07F0
0FE0
1FE0
1FF8
1FFC
1FFE
007E
003E
003E
003E
01FE
FFFE
FFFC
FFFC
FFF8
FFE0
ENDCHAR
STARTCHAR 0034
ENCODING 52
SWIDTH 540 0
DWIDTH 18 0
BBX 17 23 1 1
BITMAP
01F400
03F400
03EC00
07EC00
07DC00
0FDC00
1FBC00
1F3C00
3F7C00
3E7C00
7E7C00
7C7C00
FC7C00
FFFF80
FFFF80
FFFF80
FFFF80
7FFF80
007C00
007C00
007C00
007C00
007C00
ENDCHAR
STARTCHAR 0035
ENCODING 53
SWIDTH 540 0
DWIDTH 18 0
BBX 15 23 2 0
BITMAP
FFF8
FFF8
FFF8
FFF8
FFF8
FC00
FC00
FFC0
FFF0
FFF8
FFFC
FFFE
01FE
007E
003E
003E
007E
01FE
FFFE
FFFC
FFFC
FFF0
FFC0
ENDCHAR
STARTCHAR 0036
ENCODING 54
SWIDTH 540 0
DWIDTH 18 0
BBX 17 23 1 0
BITMAP
01F800
03F800
03F000
07E000
07E000
0FC000
1FC000
1F9000
3FBC00
3F3E00
7F7F00
7EFF00
7C3F80
FC1F80
FC1F80
FC1F80
FC1F80
FE3F80
7FFF00
7FFF00
3FFE00
1FFC00
0FF000
ENDCHAR
STARTCHAR 0037
ENCODING 55
SWIDTH 540 0
DWIDTH 18 0
BBX 15 23 2 0
BITMAP
FFFC
FFFE
FFFE
FFFE
FFFE
007E
007C
00FC
00FC
00F8
3FFE
3FFE
3FFE
03F0
03F0
07E0
07E0
07E0
0FE0
0FC0
0FC0
1FC0
1F80
ENDCHAR
STARTCHAR 0038
ENCODING 56
SWIDTH 540 0
DWIDTH 18 0
BBX 17 24 1 0
BITMAP
01C000
0FF800
1FFC00
3FFE00
7FFF00
7E3F00
7C1F00
7C1F00
7C3F00
3FFE00
1FFC00
1FFC00
3FFE00
7F7F00
FC1F00
FC1F80
F81F80
FC1F80
FC3F80
FFFF00
7FFF00
7FFE00
3FFC00
0FF800
ENDCHAR
STARTCHAR 0039
ENCODING 57
SWIDTH 540 0
DWIDTH 18 0
BBX 17 24 1 0
BITMAP
01C000
0FF800
1FFC00
3FFE00
7FFF00
FFFF00
FE3F80
FC1F80
FC1F80
FC1F80
FC1F00
FF3F00
7F3F00
7F7E00
3E7E00
1EFC00
01FC00
01F800
03F800
03F000
07F000
07E000
0FC000
0FC000
ENDCHAR
STARTCHAR 003A
ENCODING 58
SWIDTH 300 0
DWIDTH 10 0
BBX 6 16 2 0
BITMAP
78
FC
FC
FC
FC
7C
10
00
00
00
78
FC
FC
FC
FC
7C
ENDCHAR
STARTCHAR 003B
ENCODING 59
SWIDTH 300 0
DWIDTH 10 0
BBX 8 21 1 -5
BITMAP
3C
3E
7F
7F
7F
3E
08
00
00
00
00
7E
7E
7C
7C
7C
78
F8
F8
F0
F0
ENDCHAR
STARTCHAR 003C
ENCODING 60
SWIDTH 810 0
DWIDTH 27 0
BBX 19 18 4 1
BITMAP
0000E0
0003E0
000FE0
007FE0
01FF80
0FFC00
3FF000
FF8000
FE0000
FE0000
FF8000
3FF000
0FFC00
03FF00
007FE0
001FE0
0003E0
0000E0
ENDCHAR
STARTCHAR 003D
ENCODING 61
SWIDTH 810 0
DWIDTH 27 0
BBX 20 11 4 4
BITMAP
FFFFF0
FFFFF0
FFFFF0
000000
000000
000000
000000
FFFFF0
FFFFF0
FFFFF0
FFFFF0
ENDCHAR
STARTCHAR 003E
ENCODING 62
SWIDTH 810 0
DWIDTH 27 0
BBX 19 20 4 0
BITMAP
800000
E00000
FC0000
FF0000
7FE000
1FF800
07FE00
00FFC0
003FE0
0007E0
0007E0
001FE0
00FFC0
03FF00
1FF800
7FE000
FF0000
FC0000
F00000
800000
ENDCHAR
STARTCHAR 003F
ENCODING 63
SWIDTH 510 0
DWIDTH 17 0
BBX 15 24 1 0
BITMAP
03C0
1FF0
3FF8
7FFC
FFFE
FFFE
F87E
087E
007E
00FE
0FFE
0FFC
0FFC
0FF0
0FC0
0FC0
0FC0
0000
0780
0FC0
0FE0
0FE0
0FC0
07C0
ENDCHAR
STARTCHAR 0040
ENCODING 64
SWIDTH 990 0
DWIDTH 33 0
BBX 31 29 1 -5
BITMAP
000FFE00
007FFF80
01FFFFC0
03F003F0
07C000F8
0F800078
1E00003C
1C01001C
3C0FEE1E
381FFE1E
783E7E0E
70783E0E
70F83C0E
F0F03C1E
F0F03C1E
F0F03C1C
F0F0383C
F0F07838
70F0F878
70FBFFF0
787FBFE0
383F1F80
3C000000
1E000040
0F8001E0
07E007E0
03FFFF80
00FFFF00
003FF800
ENDCHAR
STARTCHAR 0041
ENCODING 65
SWIDTH 600 0
DWIDTH 20 0
BBX 17 24 2 0
BITMAP
03C000
0FF800
3FFC00
3FFE00
7FFF00
FFFF00
FE3F80
FC1F80
F81F80
F80F80
FBFF80
FBFF80
FBFF80
FBFF80
FBFF80
F80F80
F80F80
F80F80
F80F80
F80F80
F80F80
F80F80
F80F80
F80F80
ENDCHAR
STARTCHAR 0042
ENCODING 66
SWIDTH 570 0
DWIDTH 19 0
BBX 17 24 2 0
BITMAP
038000
1FF000
3FFC00
7FFE00
FFFE00
FE7F00
FC3F00
F83F00
F83F00
F87E00
FBFC00
FBF800
FBFE00
FBFF00
F8FF00
F81F80
F81F80
F81F80
F83F80
FBFF80
FBFF00
FBFE00
FBFC00
FBF000
ENDCHAR
STARTCHAR 0043
ENCODING 67
SWIDTH 480 0
DWIDTH 16 0
BBX 15 23 1 0
BITMAP
00FE
03FE
0FFE
1FFE
3FFE
7FE0
7F00
FE00
FC00
FC00
FC00
FC00
FC00
FC00
FE00
7E00
7F80
3FF8
3FFE
1FFE
0FFE
03FE
007E
ENDCHAR
STARTCHAR 0044
ENCODING 68
SWIDTH 630 0
DWIDTH 21 0
BBX 19 23 2 0
BITMAP
FFE000
FFF800
FFFC00
FFFE00
FFFF00
FCFF80
FC3F80
FC1FC0
FC0FC0
FC0FC0
FC0FC0
FC07E0
FC0FC0
FC0FC0
FC0FC0
FC1FC0
FC3F80
FFFF80
FFFF00
FFFE00
FFFC00
FFF800
FFC000
ENDCHAR
STARTCHAR 0045
ENCODING 69
SWIDTH 510 0
DWIDTH 17 0
BBX 15 23 1 0
BITMAP
00FE
03FE
0FFE
1FFE
3FFE
7FC0
7F00
FE00
FC00
FFFE
FFFE
FFFE
FFFE
FFFE
FE00
7E00
7F00
3FF0
3FFE
1FFE
0FFE
03FE
007E
ENDCHAR
STARTCHAR 0046
ENCODING 70
SWIDTH 450 0
DWIDTH 15 0
BBX 12 23 2 0
BITMAP
1FF0
3FF0
7FF0
FFF0
FFF0
FC00
FC00
F800
F800
FFF0
FFF0
FFF0
FFF0
FFF0
FFF0
F800
F800
F800
F800
F800
F800
F800
F800
ENDCHAR
STARTCHAR 0047
ENCODING 71
SWIDTH 750 0
DWIDTH 25 0
BBX 24 24 1 0
BITMAP
003E00
01FFC0
07FFE0
0FFFF8
1FFFF8
3FFFF0
7F81E0
7F0040
7E0000
FC0000
FC0FFF
FC0FFF
FC0FFF
FC0FFF
FC0FFE
FE007E
7E00FE
7F01FE
3FF7FC
3FFFF8
1FFFF8
0FFFF0
07FFC0
01FF80
ENDCHAR
STARTCHAR 0048
ENCODING 72
SWIDTH 630 0
DWIDTH 21 0
BBX 17 23 2 0
BITMAP
FC0F80
FC0F80
FC0F80
FC0F80
FC0F80
FC0F80
FC0F80
FC0F80
FFFF80
FFFF80
FFFF80
FFFF80
FFFF80
FFFF80
FC0F80
FC0F80
FC0F80
FC0F80
FC0F80
FC0F80
FC0F80
FC0F80
FC0F80
ENDCHAR
STARTCHAR 0049
ENCODING 73
SWIDTH 270 0
DWIDTH 9 0
BBX 6 23 2 0
BITMAP
FC
FC
FC
FC
FC
FC
FC
FC
FC
FC
FC
FC
FC
FC
FC
FC
FC
FC
FC
FC
FC
FC
FC
ENDCHAR
STARTCHAR 004A
ENCODING 74
SWIDTH 420 0
DWIDTH 14 0
BBX 12 23 0 0
BITMAP
01F0
01F0
01F0
01F0
01F0
01F0
01F0
01F0
01F0
01F0
01F0
01F0
01F0
01F0
01F0
01F0
03F0
07F0
FFF0
FFF0
FFE0
FFC0
FF00
ENDCHAR
STARTCHAR 004B
ENCODING 75
SWIDTH 600 0
DWIDTH 20 0
BBX 18 23 2 0
BITMAP
FC1FC0
FC1F80
FC3F80
FC3F00
FC7F00
FC7E00
FCFE00
FDFC00
FFFC00
FFF000
FFFE00
FFFF00
FFFF00
FCFF00
FC3F80
FC1F80
FC1F80
FC1F80
FC1F80
FC1F80
FC1F80
FC1F80
FC1F80
ENDCHAR
STARTCHAR 004C
ENCODING 76
SWIDTH 420 0
DWIDTH 14 0
BBX 12 23 2 0
BITMAP
F800
F800
F800
F800
F800
F800
F800
F800
F800
F800
F800
F800
F800
F800
F800
F800
FC00
FE00
FFF0
FFF0
7FF0
3FF0
0FF0
ENDCHAR
STARTCHAR 004D
ENCODING 77
SWIDTH 810 0
DWIDTH 27 0
BBX 27 24 0 0
BITMAP
03001C00
0FC03F00
0FE07F00
1FE0FF80
1FF0FF80
1FF0FF80
1FF0FF80
1EF1FF80
3EF9F780
3EF9E7C0
3E79E7C0
3E79E7C0
3E7FE7C0
3E7FE7C0
3E3FC7C0
3E3FC7C0
7E3FC7C0
7E3FC7E0
7E3FC7E0
7C1F83E0
7C1F83E0
7C1F83E0
7C1F03E0
FC0F03E0
ENDCHAR
STARTCHAR 004E
ENCODING 78
SWIDTH 660 0
DWIDTH 22 0
BBX 18 24 2 0
BITMAP
380000
FC07C0
FE07C0
FE07C0
FF07C0
FF87C0
FF87C0
FFC7C0
FFC7C0
FFE7C0
FBE7C0
FBF7C0
F9F7C0
F9FFC0
F8FFC0
F8FFC0
F87FC0
F83FC0
F83FC0
F81FC0
F81FC0
F80FC0
F80FC0
F807C0
ENDCHAR
STARTCHAR 004F
ENCODING 79
SWIDTH 750 0
DWIDTH 25 0
BBX 24 24 1 0
BITMAP
003C00
01FF80
07FFE0
0FFFF0
1FFFF8
3FFFFC
7FC3FC
7F00FE
FE007E
FE007F
FC003F
FC003F
FC003F
FC003F
FC003F
FE007E
7E00FE
7F01FE
3FEFFC
3FFFFC
1FFFF8
0FFFF0
07FFC0
01FF80
ENDCHAR
STARTCHAR 0050
ENCODING 80
SWIDTH 570 0
DWIDTH 19 0
BBX 16 24 2 0
BITMAP
03C0
1FF8
3FFC
7FFE
7FFE
FFFF
FC3F
FC3F
F83F
F83F
F87F
FBFF
FBFE
FBFE
FBFC
FBF0
FA00
F800
F800
F800
F800
F800
F800
F800
ENDCHAR
STARTCHAR 0051
ENCODING 81
SWIDTH 750 0
DWIDTH 25 0
BBX 24 27 1 -3
BITMAP
003C00
01FF80
07FFE0
0FFFF0
1FFFF8
3FFFFC
7FC3FC
7F00FE
FE007E
FC007F
FC003F
FC003F
FC003F
FC003F
FC003F
FE7C7F
7E7CFE
7F7DFE
7F7FFC
3F7FFC
1F7FF8
0F7FF0
077FE0
017F80
007C00
007C00
007C00
ENDCHAR
STARTCHAR 0052
ENCODING 82
SWIDTH 570 0
DWIDTH 19 0
BBX 16 24 2 0
BITMAP
0380
1FF8
3FFC
7FFE
FFFE
FFFF
FC3F
F83F
F83F
F87E
FBFE
FBFC
FBFC
FBFE
FBFF
F87F
F83F
F81F
F81F
F81F
F81F
F81F
F81F
F81F
ENDCHAR
STARTCHAR 0053
ENCODING 83
SWIDTH 510 0
DWIDTH 17 0
BBX 16 23 1 0
BITMAP
1FFC
3FFC
7FFC
7FFC
FFFC
FC00
FC00
FE00
7F80
7FE0
3FF0
1FFC
07FC
01FE
00FF
007F
003F
FFFF
FFFF
FFFE
FFFE
FFFC
FFF0
ENDCHAR
STARTCHAR 0054
ENCODING 84
SWIDTH 480 0
DWIDTH 16 0
BBX 16 23 0 0
BITMAP
FFFF
FFFF
FFFF
FFFF
FFFF
07E0
07E0
07E0
07E0
07E0
07E0
07E0
07E0
07E0
07E0
07E0
07E0
07E0
07E0
07E0
07E0
07E0
07E0
ENDCHAR
STARTCHAR 0055
ENCODING 85
SWIDTH 600 0
DWIDTH 20 0
BBX 17 23 2 0
BITMAP
F80F80
F80F80
F80F80
F80F80
F80F80
F80F80
F80F80
F80F80
F80F80
F80F80
F80F80
F80F80
F80F80
F80F80
F81F80
FC1F80
FC1F80
FE7F80
FFFF00
7FFF00
3FFE00
1FFC00
0FF800
ENDCHAR
STARTCHAR 0056
ENCODING 86
SWIDTH 540 0
DWIDTH 18 0
BBX 19 23 0 0
BITMAP
F807E0
FC07E0
FC0FC0
FC0FC0
7C0FC0
7E0F80
7E1F80
7E1F80
3E1F80
3F1F00
3F3F00
1F3F00
1F3F00
1FBE00
1FBE00
0FFE00
0FFE00
0FFC00
0FFC00
07FC00
07F800
03F800
03F000
ENDCHAR
STARTCHAR 0057
ENCODING 87
SWIDTH 900 0
DWIDTH 30 0
BBX 27 23 2 0
BITMAP
F83F07E0
F83F07E0
F83F07E0
F83F07E0
F83F07E0
F83F07E0
F83F07E0
F83F07E0
F83F07E0
F83F07E0
F83F07E0
F83F07E0
F83F07E0
F83F07E0
F83F07E0
F83F07E0
FC3F07E0
FE7F8FC0
FFFFFFC0
7FFFFFC0
7FFFFF80
3FFBFF00
0FE1FE00
ENDCHAR
STARTCHAR 0058
ENCODING 88
SWIDTH 630 0
DWIDTH 21 0
BBX 19 23 1 0
BITMAP
F001E0
FC07E0
FF1FE0
FFBFE0
FFFFE0
3FFF80
0FFE00
07FC00
03F800
03F800
01F800
01F800
03F800
03F800
03F800
07FC00
0FFE00
FFFFE0
FFFFE0
FFBFE0
FF0FE0
FC07E0
E000E0
ENDCHAR
STARTCHAR 0059
ENCODING 89
SWIDTH 540 0
DWIDTH 18 0
BBX 17 23 1 0
BITMAP
FC1F80
FC1F80
FC1F80
FC1F80
FC1F80
FC1F80
FC1F80
FC1F80
7C1F00
7E3F00
7FFF00
3FFE00
3FFE00
1FFC00
07F000
03E000
03E000
03E000
03E000
03E000
03E000
03E000
03E000
ENDCHAR
STARTCHAR 005A
ENCODING 90
SWIDTH 510 0
DWIDTH 17 0
BBX 17 23 0 0
BITMAP
3FFF00
3FFF80
3FFF80
3FFF80
3FFF80
003F80
007F00
00FE00
01FC00
01FC00
03F800
07F000
07F000
0FE000
1FC000
3F8000
3F8000
7FFF80
FFFF80
FFFF80
FFFF80
7FFF80
3FFF80
ENDCHAR
STARTCHAR 005B
ENCODING 91
SWIDTH 330 0
DWIDTH 11 0
BBX 7 30 3 -7
BITMAP
FE
FE
F0
F0
F0
F0
F0
F0
F0
F0
F0
F0
F0
F0
F0
F0
F0
F0
F0
F0
F0
F0
F0
F0
F0
F0
F0
F0
FE
FE
ENDCHAR
STARTCHAR 005C
ENCODING 92
SWIDTH 270 0
DWIDTH 9 0
BBX 11 27 -1 -3
BITMAP
E000
E000
7000
7000
7000
7000
3800
3800
3800
1C00
1C00
1C00
0E00
0E00
0E00
0700
0700
0700
0380
0380
0380
01C0
01C0
01C0
01C0
00E0
00E0
ENDCHAR
STARTCHAR 005D
ENCODING 93
SWIDTH 330 0
DWIDTH 11 0
BBX 7 30 1 -7
BITMAP
FE
FE
1E
1E
1E
1E
1E
1E
1E
1E
1E
1E
1E
1E
1E
1E
1E
1E
1E
1E
1E
1E
1E
1E
1E
1E
1E
1E
FE
FE
ENDCHAR
STARTCHAR 005E
ENCODING 94
SWIDTH 990 0
DWIDTH 33 0
BBX 19 9 7 15
BITMAP
01F000
03F800
07FC00
07FE00
0FBF00
1F1F00
3E0F80
7C07C0
F803E0
ENDCHAR
STARTCHAR 005F
ENCODING 95
SWIDTH 480 0
DWIDTH 16 0
BBX 17 4 0 -8
BITMAP
FFFF80
FFFF80
FFFF80
FFFF80
ENDCHAR
STARTCHAR 0060
ENCODING 96
SWIDTH 480 0
DWIDTH 16 0
BBX 7 6 4 18
BITMAP
F0
78
38
1C
0C
06
ENDCHAR
STARTCHAR 0061
ENCODING 97
SWIDTH 540 0
DWIDTH 18 0
BBX 16 17 1 0
BITMAP
03C0
1FF8
3FFC
7FFE
7FFE
FFFF
FC1F
F81F
F81F
F81F
FC1F
FC1F
7FDF
7FDF
3FDF
1FDF
0FDF
ENDCHAR
STARTCHAR 0062
ENCODING 98
SWIDTH 540 0
DWIDTH 18 0
BBX 17 23 1 0
BITMAP
FC0000
FC0000
FC0000
FC0000
FC0000
FC0000
FFF000
FFFC00
FFFE00
FFFE00
FFFF00
FE3F00
FC1F80
FC1F80
FC0F80
FC1F80
7C1F80
7E3F00
7FFF00
3FFF00
3FFE00
0FFC00
07F000
ENDCHAR
STARTCHAR 0063
ENCODING 99
SWIDTH 390 0
DWIDTH 13 0
BBX 11 17 1 0
BITMAP
0060
0FE0
1FE0
3FE0
7FE0
FFE0
FC00
F800
F800
F800
FC00
FE00
7FE0
7FE0
3FE0
1FE0
03E0
ENDCHAR
STARTCHAR 0064
ENCODING 100
SWIDTH 540 0
DWIDTH 18 0
BBX 16 23 1 0
BITMAP
001F
001F
001F
001F
001F
001F
03DF
0FDF
3FDF
7FDF
7FDF
FFDF
FC1F
F81F
F81F
F81F
F81F
FC3F
FFFF
7FFE
3FFC
1FF8
0FF0
ENDCHAR
STARTCHAR 0065
ENCODING 101
SWIDTH 540 0
DWIDTH 18 0
BBX 17 17 1 0
BITMAP
03E000
0FF800
3FFC00
3FFE00
7E3E00
FC7F00
F8FC00
FBF800
FBE000
F9C400
F80F00
FC1F80
7FFF00
7FFF00
3FFE00
1FFC00
07F000
ENDCHAR
STARTCHAR 0066
ENCODING 102
SWIDTH 330 0
DWIDTH 11 0
BBX 10 23 2 0
BITMAP
1FC0
7FC0
FFC0
FFC0
FFC0
F800
FFC0
FFC0
FFC0
FFC0
FFC0
F800
F800
F800
F800
F800
F800
F800
F800
F800
F800
F800
F800
ENDCHAR
STARTCHAR 0067
ENCODING 103
SWIDTH 540 0
DWIDTH 18 0
BBX 16 24 1 -7
BITMAP
03E0
1FF8
3FFC
7FFE
7FFE
FF7F
FC1F
F81F
F81F
F81F
FC1F
FC1F
7FDF
7FDF
3FDF
1FDF
07DF
001F
003F
3CFF
3FFE
3FFE
3FFC
3FF0
ENDCHAR
STARTCHAR 0068
ENCODING 104
SWIDTH 540 0
DWIDTH 18 0
BBX 15 23 2 0
BITMAP
F800
F800
F800
F800
F800
F800
F9E0
FFF0
FFF8
FFFC
FFFC
FCFC
F87E
F87E
F87E
F87E
F87E
F87E
F87E
F87E
F87E
F87E
F87E
ENDCHAR
STARTCHAR 0069
ENCODING 105
SWIDTH 240 0
DWIDTH 8 0
BBX 6 24 1 0
BITMAP
38
7C
FC
FC
FC
78
00
7C
7C
7C
7C
7C
7C
7C
7C
7C
7C
7C
7C
7C
7C
7C
7C
7C
ENDCHAR
STARTCHAR 006A
ENCODING 106
SWIDTH 240 0
DWIDTH 8 0
BBX 9 31 -2 -7
BITMAP
0700
0F80
1F80
1F80
0F80
0F00
0000
0F80
0F80
0F80
0F80
0F80
0F80
0F80
0F80
0F80
0F80
0F80
0F80
0F80
0F80
0F80
0F80
0F80
0F80
1F80
FF80
FF00
FF00
FE00
F800
ENDCHAR
STARTCHAR 006B
ENCODING 107
SWIDTH 510 0
DWIDTH 17 0
BBX 15 23 2 0
BITMAP
F800
F800
F800
F800
F800
F800
F87E
F87C
F8FC
F8F8
F9F8
F9F8
FFF0
FFE0
FFF8
FFFC
FFFC
F87C
F87C
F87C
F87C
F87C
F87C
ENDCHAR
STARTCHAR 006C
ENCODING 108
SWIDTH 240 0
DWIDTH 8 0
BBX 5 23 2 0
BITMAP
F8
F8
F8
F8
F8
F8
F8
F8
F8
F8
F8
F8
F8
F8
F8
F8
F8
F8
F8
F8
F8
F8
F8
ENDCHAR
STARTCHAR 006D
ENCODING 109
SWIDTH 780 0
DWIDTH 26 0
BBX 24 17 1 0
BITMAP
0781E0
1FE7F8
3FFFFC
3FFFFE
7FFFFF
7C7F3F
FC3E1F
F83E1F
F83E1F
F83E1F
F83E1F
F83E1F
F83E1F
F83E1F
F83E1F
F83E1F
F83E1F
ENDCHAR
STARTCHAR 006E
ENCODING 110
SWIDTH 510 0
DWIDTH 17 0
BBX 15 17 1 0
BITMAP
03C0
1FF0
3FF8
3FFC
7FFE
7E7E
FC3E
FC3E
FC3E
FC3E
FC3E
FC3E
FC3E
FC3E
FC3E
FC3E
FC3E
ENDCHAR
STARTCHAR 006F
ENCODING 111
SWIDTH 540 0
DWIDTH 18 0
BBX 16 17 1 0
BITMAP
03E0
0FF8
3FFC
3FFE
7FFE
FE7F
FC3F
F81F
F81F
F81F
FC1F
FC3F
7FFF
7FFE
3FFC
1FF8
07F0
ENDCHAR
STARTCHAR 0070
ENCODING 112
SWIDTH 540 0
DWIDTH 18 0
BBX 17 24 1 -7
BITMAP
01E000
0FF800
1FFE00
3FFE00
7FFF00
7F7F00
7C1F80
FC1F80
FC0F80
FC0F80
FC1F80
FC3F80
FFFF00
FFFF00
FFFE00
FFFC00
FFF000
FC0000
FC0000
FC0000
FC0000
FC0000
FC0000
FC0000
ENDCHAR
STARTCHAR 0071
ENCODING 113
SWIDTH 540 0
DWIDTH 18 0
BBX 16 24 1 -7
BITMAP
03C0
1FF8
3FFC
7FFE
7FFE
FFFF
FC1F
F81F
F81F
F81F
FC1F
FC1F
7FDF
7FDF
3FDF
1FDF
0FDF
001F
001F
001F
001F
001F
001F
001F
ENDCHAR
STARTCHAR 0072
ENCODING 114
SWIDTH 360 0
DWIDTH 12 0
BBX 10 17 2 0
BITMAP
F000
F3C0
F7C0
FFC0
FFC0
FFC0
FC00
F800
F800
F800
F800
F800
F800
F800
F800
F800
F800
ENDCHAR
STARTCHAR 0073
ENCODING 115
SWIDTH 420 0
DWIDTH 14 0
BBX 13 17 1 0
BITMAP
03F0
3FF0
7FF0
7FF0
FFF0
F800
FE00
7F80
3FE0
1FF0
07F0
01F8
FFF8
FFF0
FFF0
FFE0
FFC0
ENDCHAR
STARTCHAR 0074
ENCODING 116
SWIDTH 330 0
DWIDTH 11 0
BBX 10 21 1 0
BITMAP
FC00
FC00
FC00
FC00
FFC0
FFC0
FFC0
FFC0
FFC0
FC00
FC00
FC00
FC00
FC00
FC00
FC00
7FC0
7FC0
7FC0
3FC0
0FC0
ENDCHAR
STARTCHAR 0075
ENCODING 117
SWIDTH 510 0
DWIDTH 17 0
BBX 15 17 1 0
BITMAP
FC3E
FC3E
FC3E
FC3E
FC3E
FC3E
FC3E
FC3E
FC3E
FC3E
FC3E
7C3E
7FFE
7FFC
3FFC
1FF8
0FE0
ENDCHAR
STARTCHAR 0076
ENCODING 118
SWIDTH 450 0
DWIDTH 15 0
BBX 16 17 0 0
BITMAP
F81F
F81F
FC3F
7C3E
7C3E
7C3E
3E7C
3E7C
3E7C
1EF8
1FF8
1FF8
0FF0
0FF0
0FF0
07E0
03C0
ENDCHAR
STARTCHAR 0077
ENCODING 119
SWIDTH 780 0
DWIDTH 26 0
BBX 24 17 1 0
BITMAP
F83E1F
F83E1F
F83E1F
F83E1F
F83E1F
F83E1F
F83E1F
F83E1F
F83E1F
F83E1F
F83E1F
7C7E1F
7FFFFF
7FFFFE
3FFFFE
1FF7FC
0FE3F8
ENDCHAR
STARTCHAR 0078
ENCODING 120
SWIDTH 420 0
DWIDTH 14 0
BBX 15 17 0 0
BITMAP
8000
F83E
FEFE
FFFE
FFFE
FFFE
0FE0
07C0
07C0
07C0
0FE0
1FF0
FFFE
FFFE
FEFE
FC7E
F01E
ENDCHAR
STARTCHAR 0079
ENCODING 121
SWIDTH 510 0
DWIDTH 17 0
BBX 15 24 1 -7
BITMAP
FC3E
FC3E
FC3E
FC3E
FC3E
FC3E
FC3E
FC3E
FC3E
FC3E
FC3E
7C3E
7FFE
7FFE
3FFC
1FF8
0FF0
07C0
07C0
07C0
07C0
07C0
07C0
07C0
ENDCHAR
STARTCHAR 007A
ENCODING 122
SWIDTH 450 0
DWIDTH 15 0
BBX 14 17 0 0
BITMAP
7FC0
7FFC
7FFC
7FFC
7FFC
01FC
03F8
07F0
0FE0
0FC0
1F80
3F00
7FFC
7FFC
FFFC
7FFC
3FFC
ENDCHAR
STARTCHAR 007B
ENCODING 123
SWIDTH 480 0
DWIDTH 16 0
BBX 13 31 2 -7
BITMAP
01F8
07F8
07F8
07F8
07C0
0780
0780
0780
0780
0780
0F80
0F80
0F80
FF80
FF00
FC00
FF00
3F80
0F80
0F80
0780
0780
0780
0780
0780
0780
07C0
07F8
07F8
03F8
00F8
ENDCHAR
STARTCHAR 007C
ENCODING 124
SWIDTH 480 0
DWIDTH 16 0
BBX 4 33 6 -8
BITMAP
F0
F0
F0
F0
F0
F0
F0
F0
F0
F0
F0
F0
F0
F0
F0
F0
F0
F0
F0
F0
F0
F0
F0
F0
F0
F0
F0
F0
F0
F0
F0
F0
F0
ENDCHAR
STARTCHAR 007D
ENCODING 125
SWIDTH 480 0
DWIDTH 16 0
BBX 12 31 2 -7
BITMAP
FC00
FE00
FF00
FF00
1F00
1F00
0F00
0F00
0F00
0F00
0F00
0F00
0F80
0FF0
07F0
03F0
07F0
0FC0
0F80
0F00
0F00
0F00
0F00
0F00
1F00
1F00
3F00
FF00
FF00
FE00
F000
ENDCHAR
STARTCHAR 007E
ENCODING 126
SWIDTH 810 0
DWIDTH 27 0
BBX 22 6 3 7
BITMAP
0F8004
7FF81C
FFFFFC
FFFFFC
E03FF8
8007E0
ENDCHAR
STARTCHAR 0080
ENCODING 128
SWIDTH 540 0
DWIDTH 18 0
BBX 18 23 0 0
BITMAP
001FC0
00FFC0
01FFC0
03FFC0
07FFC0
0FF000
0FC000
0FC000
7FFF80
FFFF00
1F8000
1F8000
7FFF00
FFFE00
1F8000
0FC000
0FE000
0FF800
07FFC0
03FFC0
01FFC0
007FC0
001FC0
ENDCHAR
STARTCHAR 00A0
ENCODING 160
SWIDTH 540 0
DWIDTH 18 0
BBX 0 0 0 0
BITMAP
ENDCHAR
STARTCHAR 00A1
ENCODING 161
SWIDTH 300 0
DWIDTH 10 0
BBX 7 24 2 0
BITMAP
38
7C
FE
FE
FE
7C
38
00
7C
7C
7C
7C
7C
7C
7C
7C
7C
7C
FC
FC
FC
FC
FE
FE
ENDCHAR
STARTCHAR 00A2
ENCODING 162
SWIDTH 540 0
DWIDTH 18 0
BBX 11 23 4 0
BITMAP
0700
0700
0700
0700
07E0
3FE0
7FE0
FFE0
FFE0
F800
F000
F000
F000
F800
FFE0
7FE0
7FE0
3FE0
0700
0700
0700
0700
0700
ENDCHAR
STARTCHAR 00A3
ENCODING 163
SWIDTH 540 0
DWIDTH 18 0
BBX 18 24 0 0
BITMAP
007800
03FC00
07FC00
07FC00
0FFC00
0FFC00
0FC000
0F8000
0F8000
7FF000
7FF000
7FF000
7FF000
7FF000
1F87C0
1F87C0
1F87C0
1F0FC0
7E3FC0
FFFFC0
FFFF80
FFFF00
FFFE00
FFF800
ENDCHAR
STARTCHAR 00A4
ENCODING 164
SWIDTH 540 0
DWIDTH 18 0
BBX 18 23 0 0
BITMAP
001FC0
00FFC0
01FFC0
03FFC0
07FFC0
0FF000
0FC000
0FC000
7FFF80
FFFF00
1F8000
1F8000
7FFF00
FFFE00
1F8000
0FC000
0FE000
0FF800
07FFC0
03FFC0
01FFC0
007FC0
001FC0
ENDCHAR
STARTCHAR 00A5
ENCODING 165
SWIDTH 570 0
DWIDTH 19 0
BBX 20 23 0 0
BITMAP
7C03E0
7C07E0
7E07C0
3E07C0
3E0F80
1F0F80
FF1FF0
FF9FF0
FF9FF0
07BE00
07FE00
FFFFF0
FFFFF0
03F800
01F800
01F800
01F800
01F800
01F800
01F800
01F800
01F800
01F800
ENDCHAR
STARTCHAR 00A6
ENCODING 166
SWIDTH 480 0
DWIDTH 16 0
BBX 4 29 6 -6
BITMAP
F0
F0
F0
F0
F0
F0
F0
F0
F0
F0
F0
F0
00
00
00
00
F0
F0
F0
F0
F0
F0
F0
F0
F0
F0
F0
F0
F0
ENDCHAR
STARTCHAR 00A7
ENCODING 167
SWIDTH 510 0
DWIDTH 17 0
BBX 14 25 2 -2
BITMAP
1FF8
7FF8
7FF8
FFF8
FFF8
FC00
FC00
7E00
3F80
7FE0
FFF8
F9FC
F87C
7E3C
7FFC
1FFC
07F8
01F8
007C
007C
FFFC
FFFC
FFFC
FFF8
FFF0
ENDCHAR
STARTCHAR 00A8
ENCODING 168
SWIDTH 480 0
DWIDTH 16 0
BBX 10 4 3 19
BITMAP
73C0
FBC0
73C0
7180
ENDCHAR
STARTCHAR 00A9
ENCODING 169
SWIDTH 810 0
DWIDTH 27 0
BBX 24 24 2 0
BITMAP
00FF00
03FFC0
0F81F0
1E0078
380038
307E1C
71FF8E
63E786
E3C3C7
C383C3
C78003
C78003
C78003
C78003
C383C3
E3C3C7
63F786
71FF8E
307E1C
38003C
1E0078
0F81F0
03FFC0
00FF00
ENDCHAR
STARTCHAR 00AA
ENCODING 170
SWIDTH 420 0
DWIDTH 14 0
BBX 12 12 1 12
BITMAP
0400
3F80
7FE0
FFE0
F9F0
F0F0
F0F0
F0F0
F9F0
FFF0
7FF0
3FF0
ENDCHAR
STARTCHAR 00AB
ENCODING 171
SWIDTH 540 0
DWIDTH 18 0
BBX 14 10 2 3
BITMAP
1E3C
3C78
38F0
79E0
F1E0
71E0
78F0
3C78
1E78
0E3C
ENDCHAR
STARTCHAR 00AC
ENCODING 172
SWIDTH 810 0
DWIDTH 27 0
BBX 20 8 4 6
BITMAP
FFFFF0
FFFFF0
FFFFF0
FFFFF0
0000F0
0000F0
0000F0
0000F0
ENDCHAR
STARTCHAR 00AD
ENCODING 173
SWIDTH 330 0
DWIDTH 11 0
BBX 9 4 1 6
BITMAP
FF80
FF80
FF80
FF80
ENDCHAR
STARTCHAR 00AE
ENCODING 174
SWIDTH 810 0
DWIDTH 27 0
BBX 24 24 2 0
BITMAP
00FF00
03FFC0
0F81F0
1E0078
38003C
31FE1C
71FF8E
61CFC6
E1C3C7
C1C3C3
C1C7C3
C1FF83
C1FE03
C1CF03
C1CF03
E1C787
61C786
71C3CE
30001C
380038
1E0078
0F81E0
03FFC0
00FF00
ENDCHAR
STARTCHAR 00AF
ENCODING 175
SWIDTH 480 0
DWIDTH 16 0
BBX 9 3 4 20
BITMAP
FF80
FF80
FF80
ENDCHAR
STARTCHAR 00B0
ENCODING 176
SWIDTH 300 0
DWIDTH 10 0
BBX 11 10 0 14
BITMAP
0E00
3F80
7FC0
60C0
E0E0
E0E0
60C0
71C0
3F80
1F00
ENDCHAR
STARTCHAR 00B1
ENCODING 177
SWIDTH 810 0
DWIDTH 27 0
BBX 20 20 4 0
BITMAP
00F000
00F000
00F000
00F000
00F000
FFFFF0
FFFFF0
FFFFF0
FFFFF0
00F000
00F000
00F000
00F000
00F000
000000
000000
000000
FFFFF0
FFFFF0
FFFFF0
ENDCHAR
STARTCHAR 00B2
ENCODING 178
SWIDTH 360 0
DWIDTH 12 0
BBX 10 15 1 9
BITMAP
0400
3F80
7FC0
FFC0
F3C0
F3C0
F7C0
6F80
1F00
3E00
7C00
FFC0
FFC0
FFC0
3FC0
ENDCHAR
STARTCHAR 00B3
ENCODING 179
SWIDTH 360 0
DWIDTH 12 0
BBX 10 14 1 9
BITMAP
FF80
FFC0
FFC0
0780
0F00
3E00
3F80
3FC0
01C0
01C0
FFC0
FFC0
FF80
FE00
ENDCHAR
STARTCHAR 00B4
ENCODING 180
SWIDTH 480 0
DWIDTH 16 0
BBX 7 6 6 18
BITMAP
3E
3C
78
70
E0
C0
ENDCHAR
STARTCHAR 00B5
ENCODING 181
SWIDTH 630 0
DWIDTH 21 0
BBX 21 25 -1 -7
BITMAP
0FC0F8
0FC1F8
0FC1F8
0FC1F8
1F81F8
1F81F8
1F81F8
1F81F0
1F83F0
1F83F0
1F03F0
3F03F0
3F87F0
3F8FE0
3FFFE0
3FFFE0
3FFBE0
7EF7E0
7E0000
7E0000
7E0000
7E0000
7C0000
FC0000
FC0000
ENDCHAR
STARTCHAR 00B6
ENCODING 182
SWIDTH 480 0
DWIDTH 16 0
BBX 16 24 0 0
BITMAP
0FFF
3FFF
7F8E
7F8E
7F8E
FF8E
7F8E
7F8E
7F8E
3F8E
1F8E
038E
038E
038E
038E
038E
038E
038E
038E
038E
038E
038E
038E
038E
ENDCHAR
STARTCHAR 00B7
ENCODING 183
SWIDTH 270 0
DWIDTH 9 0
BBX 7 6 1 9
BITMAP
3C
7E
FE
FE
7E
7C
ENDCHAR
STARTCHAR 00B8
ENCODING 184
SWIDTH 480 0
DWIDTH 16 0
BBX 8 10 5 -8
BITMAP
18
18
18
18
3E
0F
07
C7
FF
7C
ENDCHAR
STARTCHAR 00B9
ENCODING 185
SWIDTH 360 0
DWIDTH 12 0
BBX 6 14 3 9
BITMAP
FC
FC
FC
3C
3C
3C
3C
3C
3C
3C
3C
3C
3C
3C
ENDCHAR
STARTCHAR 00BA
ENCODING 186
SWIDTH 390 0
DWIDTH 13 0
BBX 12 11 1 13
BITMAP
3F80
7FE0
FFE0
F9F0
F0F0
F0F0
F0F0
F9F0
FFE0
7FE0
3F80
ENDCHAR
STARTCHAR 00BB
ENCODING 187
SWIDTH 540 0
DWIDTH 18 0
BBX 14 10 2 3
BITMAP
F1E0
78F0
3C70
1E78
0E3C
1E3C
3C78
38F0
79E0
F1C0
ENDCHAR
STARTCHAR 00BC
ENCODING 188
SWIDTH 870 0
DWIDTH 29 0
BBX 26 23 3 0
BITMAP
FC00F000
FC00E000
FC01C000
3C01C000
3C038000
3C078000
3C070000
3C0F0000
3C0E0000
3C1C0000
3C3C1F00
3C381D00
3C783F00
00707B00
00E07700
00E0F700
01C0E700
03C1FFC0
0381FFC0
0781FFC0
07000700
0E000700
0E000700
ENDCHAR
STARTCHAR 00BD
ENCODING 189
SWIDTH 870 0
DWIDTH 29 0
BBX 25 23 3 0
BITMAP
FC00F000
FC00E000
FC01C000
3C01C000
3C038000
3C078000
3C070000
3C0F0000
3C0E0000
3C1C0000
3C3C7E00
3C38FF00
3C78FF80
0071E380
00E1E780
00E0EF80
01C05F00
03C03E00
03807C00
0780F800
0700FF80
0E01FF80
0E00FF80
ENDCHAR
STARTCHAR 00BE
ENCODING 190
SWIDTH 870 0
DWIDTH 29 0
BBX 28 23 1 0
BITMAP
FF803C00
FF803800
FF807000
0F007000
1E00E000
3F01E000
3F81C000
03C3C000
03C38000
03C70000
FFCF07C0
FF8E0740
FE1E0FC0
001C1EC0
00381DC0
00383DC0
007039C0
00F07FF0
00E07FF0
01E07FF0
01C001C0
038001C0
038001C0
ENDCHAR
STARTCHAR 00BF
ENCODING 191
SWIDTH 510 0
DWIDTH 17 0
BBX 16 24 1 0
BITMAP
0180
07E0
07E0
07E0
07E0
07E0
03C0
0000
07E0
07E0
0FE0
3FE0
7FE0
7FE0
FFE0
FE00
FC00
FC38
FC3F
FFFE
7FFE
3FFC
3FF8
0FF0
ENDCHAR
STARTCHAR 00C0
ENCODING 192
SWIDTH 600 0
DWIDTH 20 0
BBX 17 31 2 0
BITMAP
0F0000
078000
038000
01C000
00C000
006000
000000
03C000
0FF800
3FFC00
3FFE00
7FFF00
FFFF00
FE3F80
FC1F80
F81F80
F80F80
FBFF80
FBFF80
FBFF80
FBFF80
FBFF80
F80F80
F80F80
F80F80
F80F80
F80F80
F80F80
F80F80
F80F80
F80F80
ENDCHAR
STARTCHAR 00C1
ENCODING 193
SWIDTH 600 0
DWIDTH 20 0
BBX 17 31 2 0
BITMAP
00F800
00F000
01E000
01C000
038000
030000
000000
03C000
0FF800
3FFC00
3FFE00
7FFF00
FFFF00
FE3F80
FC1F80
F81F80
F80F80
FBFF80
FBFF80
FBFF80
FBFF80
FBFF80
F80F80
F80F80
F80F80
F80F80
F80F80
F80F80
F80F80
F80F80
F80F80
ENDCHAR
STARTCHAR 00C2
ENCODING 194
SWIDTH 600 0
DWIDTH 20 0
BBX 17 31 2 0
BITMAP
03C000
03E000
07F000
077000
0E3800
0C1800
000000
03C000
0FF800
3FFC00
3FFE00
7FFF00
FFFF00
FE3F80
FC1F80
F81F80
F80F80
FBFF80
FBFF80
FBFF80
FBFF80
FBFF80
F80F80
F80F80
F80F80
F80F80
F80F80
F80F80
F80F80
F80F80
F80F80
ENDCHAR
STARTCHAR 00C3
ENCODING 195
SWIDTH 600 0
DWIDTH 20 0
BBX 17 31 2 0
BITMAP
000C00
07D800
0FF800
0FF000
180000
000000
000000
03C000
0FF800
3FFC00
3FFE00
7FFF00
FFFF00
FE3F80
FC1F80
F81F80
F80F80
FBFF80
FBFF80
FBFF80
FBFF80
FBFF80
F80F80
F80F80
F80F80
F80F80
F80F80
F80F80
F80F80
F80F80
F80F80
ENDCHAR
STARTCHAR 00C4
ENCODING 196
SWIDTH 600 0
DWIDTH 20 0
BBX 17 31 2 0
BITMAP
041000
0E7800
1F7800
0E7800
063000
000000
000000
03C000
0FF800
3FFC00
3FFE00
7FFF00
FFFF00
FE3F80
FC1F80
F81F80
F80F80
FBFF80
FBFF80
FBFF80
FBFF80
FBFF80
F80F80
F80F80
F80F80
F80F80
F80F80
F80F80
F80F80
F80F80
F80F80
ENDCHAR
STARTCHAR 00C5
ENCODING 197
SWIDTH 600 0
DWIDTH 20 0
BBX 17 32 2 0
BITMAP
03C000
07F000
077000
0E3800
0E3800
0E3000
07F000
03E000
03C000
0FF800
3FFC00
3FFE00
7FFF00
FFFF00
FE3F80
FC1F80
F81F80
F80F80
FBFF80
FBFF80
FBFF80
FBFF80
FBFF80
F80F80
F80F80
F80F80
F80F80
F80F80
F80F80
F80F80
F80F80
F80F80
ENDCHAR
STARTCHAR 00C6
ENCODING 198
SWIDTH 840 0
DWIDTH 28 0
BBX 26 24 2 0
BITMAP
03C00000
0FF81FC0
3FFC7FC0
3FFFFFC0
7FFFFFC0
FFFFFFC0
FC3FF000
FC1FC000
F81FC000
F81F8000
FBFFFFC0
FBFFFFC0
FBFFFFC0
FBFFFFC0
FBFFFFC0
F80F8000
F80FC000
F80FE000
F80FFC00
F80FFFC0
F80FFFC0
F80FFFC0
F80FFFC0
F80F8FC0
ENDCHAR
STARTCHAR 00C7
ENCODING 199
SWIDTH 480 0
DWIDTH 16 0
BBX 15 31 1 -8
BITMAP
00FE
03FE
0FFE
1FFE
3FFE
7FE0
7F00
FE00
FC00
FC00
FC00
FC00
FC00
FC00
FE00
7E00
7F80
3FF8
3FFE
1FFE
0FFE
03FE
007E
00C0
00E0
00F8
003C
001C
063C
07F8
01F0
ENDCHAR
STARTCHAR 00C8
ENCODING 200
SWIDTH 510 0
DWIDTH 17 0
BBX 15 31 1 0
BITMAP
03C0
01C0
00E0
0060
0070
0038
0000
0000
00FE
03FE
0FFE
1FFE
3FFE
7FC0
7F00
FE00
FC00
FFFE
FFFE
FFFE
FFFE
FFFE
FE00
7E00
7F00
3FF0
3FFE
1FFE
0FFE
03FE
007E
ENDCHAR
STARTCHAR 00C9
ENCODING 201
SWIDTH 510 0
DWIDTH 17 0
BBX 15 31 1 0
BITMAP
003C
0078
0070
00E0
00E0
01C0
0000
0000
00FE
03FE
0FFE
1FFE
3FFE
7FC0
7F00
FE00
FC00
FFFE
FFFE
FFFE
FFFE
FFFE
FE00
7E00
7F00
3FF0
3FFE
1FFE
0FFE
03FE
007E
ENDCHAR
STARTCHAR 00CA
ENCODING 202
SWIDTH 510 0
DWIDTH 17 0
BBX 15 31 1 0
BITMAP
00F0
01F0
01F8
03BC
039C
070E
0000
0000
00FE
03FE
0FFE
1FFE
3FFE
7FC0
7F00
FE00
FC00
FFFE
FFFE
FFFE
FFFE
FFFE
FE00
7E00
7F00
3FF0
3FFE
1FFE
0FFE
03FE
007E
ENDCHAR
STARTCHAR 00CB
ENCODING 203
SWIDTH 510 0
DWIDTH 17 0
BBX 15 31 1 0
BITMAP
0008
079E
079E
079E
030C
0000
0000
0000
00FE
03FE
0FFE
1FFE
3FFE
7FC0
7F00
FE00
FC00
FFFE
FFFE
FFFE
FFFE
FFFE
FE00
7E00
7F00
3FF0
3FFE
1FFE
0FFE
03FE
007E
ENDCHAR
STARTCHAR 00CC
ENCODING 204
SWIDTH 270 0
DWIDTH 9 0
BBX 8 31 0 0
BITMAP
F8
38
3C
1C
0E
06
00
00
3F
3F
3F
3F
3F
3F
3F
3F
3F
3F
3F
3F
3F
3F
3F
3F
3F
3F
3F
3F
3F
3F
3F
ENDCHAR
STARTCHAR 00CD
ENCODING 205
SWIDTH 270 0
DWIDTH 9 0
BBX 7 31 2 0
BITMAP
1E
3C
38
70
60
C0
00
00
FC
FC
FC
FC
FC
FC
FC
FC
FC
FC
FC
FC
FC
FC
FC
FC
FC
FC
FC
FC
FC
FC
FC
ENDCHAR
STARTCHAR 00CE
ENCODING 206
SWIDTH 270 0
DWIDTH 9 0
BBX 10 31 0 0
BITMAP
3E00
3F00
7700
6380
E180
C1C0
0000
0000
3F00
3F00
3F00
3F00
3F00
3F00
3F00
3F00
3F00
3F00
3F00
3F00
3F00
3F00
3F00
3F00
3F00
3F00
3F00
3F00
3F00
3F00
3F00
ENDCHAR
STARTCHAR 00CF
ENCODING 207
SWIDTH 270 0
DWIDTH 9 0
BBX 10 31 0 0
BITMAP
0100
F380
F7C0
F380
6100
0000
0000
0000
3F00
3F00
3F00
3F00
3F00
3F00
3F00
3F00
3F00
3F00
3F00
3F00
3F00
3F00
3F00
3F00
3F00
3F00
3F00
3F00
3F00
3F00
3F00
ENDCHAR
STARTCHAR 00D0
ENCODING 208
SWIDTH 630 0
DWIDTH 21 0
BBX 21 23 0 0
BITMAP
3FF800
3FFE00
3FFF00
3FFFC0
3FFFC0
3F3FE0
3F0FF0
3F07F0
3F03F0
FFC3F0
FFC1F8
FFC1F8
FFC1F8
3F03F0
3F03F0
3F07F0
3F0FE0
3F7FE0
3F7FC0
3F7F80
3F7F00
3F7E00
3F7000
ENDCHAR
STARTCHAR 00D1
ENCODING 209
SWIDTH 660 0
DWIDTH 22 0
BBX 18 31 2 0
BITMAP
000C00
07DC00
07F800
0FF800
0C0000
000000
000000
380000
FC07C0
FE07C0
FE07C0
FF07C0
FF87C0
FF87C0
FFC7C0
FFC7C0
FFE7C0
FBE7C0
FBF7C0
F9F7C0
F9FFC0
F8FFC0
F8FFC0
F87FC0
F83FC0
F83FC0
F81FC0
F81FC0
F80FC0
F80FC0
F807C0
ENDCHAR
STARTCHAR 00D2
ENCODING 210
SWIDTH 750 0
DWIDTH 25 0
BBX 24 31 1 0
BITMAP
00F000
007000
003800
003800
001C00
000E00
000000
003C00
01FF80
07FFE0
0FFFF0
1FFFF8
3FFFFC
7FC3FC
7F00FE
FE007E
FE007F
FC003F
FC003F
FC003F
FC003F
FC003F
FE007E
7E00FE
7F01FE
3FEFFC
3FFFFC
1FFFF8
0FFFF0
07FFC0
01FF80
ENDCHAR
STARTCHAR 00D3
ENCODING 211
SWIDTH 750 0
DWIDTH 25 0
BBX 24 31 1 0
BITMAP
000F00
001E00
001C00
003800
003000
007000
000000
003C00
01FF80
07FFE0
0FFFF0
1FFFF8
3FFFFC
7FC3FC
7F00FE
FE007E
FE007F
FC003F
FC003F
FC003F
FC003F
FC003F
FE007E
7E00FE
7F01FE
3FEFFC
3FFFFC
1FFFF8
0FFFF0
07FFC0
01FF80
ENDCHAR
STARTCHAR 00D4
ENCODING 212
SWIDTH 750 0
DWIDTH 25 0
BBX 24 31 1 0
BITMAP
003C00
007C00
007E00
00EE00
00E700
01C380
000000
003C00
01FF80
07FFE0
0FFFF0
1FFFF8
3FFFFC
7FC3FC
7F00FE
FE007E
FE007F
FC003F
FC003F
FC003F
FC003F
FC003F
FE007E
7E00FE
7F01FE
3FEFFC
3FFFFC
1FFFF8
0FFFF0
07FFC0
01FF80
ENDCHAR
STARTCHAR 00D5
ENCODING 213
SWIDTH 750 0
DWIDTH 25 0
BBX 24 31 1 0
BITMAP
000180
00FB80
00FF00
01FF00
018000
000000
000000
003C00
01FF80
07FFE0
0FFFF0
1FFFF8
3FFFFC
7FC3FC
7F00FE
FE007E
FE007F
FC003F
FC003F
FC003F
FC003F
FC003F
FE007E
7E00FE
7F01FE
3FEFFC
3FFFFC
1FFFF8
0FFFF0
07FFC0
01FF80
ENDCHAR
STARTCHAR 00D6
ENCODING 214
SWIDTH 750 0
DWIDTH 25 0
BBX 24 31 1 0
BITMAP
000200
01E780
01E780
01E780
00C300
000000
000000
003C00
01FF80
07FFE0
0FFFF0
1FFFF8
3FFFFC
7FC3FC
7F00FE
FE007E
FE007F
FC003F
FC003F
FC003F
FC003F
FC003F
FE007E
7E00FE
7F01FE
3FEFFC
3FFFFC
1FFFF8
0FFFF0
07FFC0
01FF80
ENDCHAR
STARTCHAR 00D7
ENCODING 215
SWIDTH 810 0
DWIDTH 27 0
BBX 19 20 5 0
BITMAP
000080
6001C0
F003E0
F807C0
7C0F80
3E1F00
1F3E00
0FFC00
07F800
03F000
03F000
07F800
0FFC00
1F3E00
3E1F00
7C0F80
F807C0
F003E0
6001C0
000080
ENDCHAR
STARTCHAR 00D8
ENCODING 216
SWIDTH 750 0
DWIDTH 25 0
BBX 24 25 1 -1
BITMAP
003C0E
01FF9F
07FFFE
0FFFFC
1FFFF8
3FFFFC
7F83FC
7F03FE
FE07FE
FC0F7E
FC1E3F
FC3E3F
FC3C3F
FC783F
FCF03F
FFE07E
7FC07E
7F80FE
3FC7FC
3FFFFC
3FFFF8
7FFFF0
7FFFC0
F1FF80
600000
ENDCHAR
STARTCHAR 00D9
ENCODING 217
SWIDTH 600 0
DWIDTH 20 0
BBX 17 31 2 0
BITMAP
0F0000
078000
038000
01C000
00C000
006000
000000
000000
F80F80
F80F80
F80F80
F80F80
F80F80
F80F80
F80F80
F80F80
F80F80
F80F80
F80F80
F80F80
F80F80
F80F80
F81F80
FC1F80
FC1F80
FE7F80
FFFF00
7FFF00
3FFE00
1FFC00
0FF800
ENDCHAR
STARTCHAR 00DA
ENCODING 218
SWIDTH 600 0
DWIDTH 20 0
BBX 17 31 2 0
BITMAP
00F800
00F000
01E000
01C000
038000
030000
000000
000000
F80F80
F80F80
F80F80
F80F80
F80F80
F80F80
F80F80
F80F80
F80F80
F80F80
F80F80
F80F80
F80F80
F80F80
F81F80
FC1F80
FC1F80
FE7F80
FFFF00
7FFF00
3FFE00
1FFC00
0FF800
ENDCHAR
STARTCHAR 00DB
ENCODING 219
SWIDTH 600 0
DWIDTH 20 0
BBX 17 31 2 0
BITMAP
03E000
07E000
077000
0E3000
0C3800
1C1C00
000000
000000
F80F80
F80F80
F80F80
F80F80
F80F80
F80F80
F80F80
F80F80
F80F80
F80F80
F80F80
F80F80
F80F80
F80F80
F81F80
FC1F80
FC1F80
FE7F80
FFFF00
7FFF00
3FFE00
1FFC00
0FF800
ENDCHAR
STARTCHAR 00DC
ENCODING 220
SWIDTH 600 0
DWIDTH 20 0
BBX 17 31 2 0
BITMAP
041000
0E7800
1F7800
0E7800
063000
000000
000000
000000
F80F80
F80F80
F80F80
F80F80
F80F80
F80F80
F80F80
F80F80
F80F80
F80F80
F80F80
F80F80
F80F80
F80F80
F81F80
FC1F80
FC1F80
FE7F80
FFFF00
7FFF00
3FFE00
1FFC00
0FF800
ENDCHAR
STARTCHAR 00DD
ENCODING 221
SWIDTH 540 0
DWIDTH 18 0
BBX 17 31 1 0
BITMAP
007800
00F000
01E000
01C000
038000
030000
000000
000000
FC1F80
FC1F80
FC1F80
FC1F80
FC1F80
FC1F80
FC1F80
FC1F80
7C1F00
7E3F00
7FFF00
3FFE00
3FFE00
1FFC00
07F000
03E000
03E000
03E000
03E000
03E000
03E000
03E000
03E000
ENDCHAR
STARTCHAR 00DE
ENCODING 222
SWIDTH 570 0
DWIDTH 19 0
BBX 16 24 2 0
BITMAP
F800
F800
F800
F980
FFF0
FFFC
FFFE
FFFE
FFFF
FC7F
FC3F
F83F
F83F
F87F
FBFF
FBFE
FBFE
FBFC
FBF0
FB80
F800
F800
F800
F800
ENDCHAR
STARTCHAR 00DF
ENCODING 223
SWIDTH 570 0
DWIDTH 19 0
BBX 19 24 0 0
BITMAP
008000
0FF800
1FFC00
1FFE00
3FFE00
3F3F00
3E3E00
FE3E00
FE3E00
FE7C00
FEFE00
FE7F00
3E3F80
3E1FC0
3E0FC0
3E07E0
3E03E0
3E03E0
3E07E0
3EFFE0
3EFFC0
3EFFC0
3EFF00
3EFC00
ENDCHAR
STARTCHAR 00E0
ENCODING 224
SWIDTH 540 0
DWIDTH 18 0
BBX 16 24 1 0
BITMAP
0F00
0780
0380
01C0
00C0
0060
0000
03C0
1FF8
3FFC
7FFE
7FFE
FFFF
FC1F
F81F
F81F
F81F
FC1F
FC1F
7FDF
7FDF
3FDF
1FDF
0FDF
ENDCHAR
STARTCHAR 00E1
ENCODING 225
SWIDTH 540 0
DWIDTH 18 0
BBX 16 24 1 0
BITMAP
00F8
00F0
01E0
01C0
0380
0300
0000
03C0
1FF8
3FFC
7FFE
7FFE
FFFF
FC1F
F81F
F81F
F81F
FC1F
FC1F
7FDF
7FDF
3FDF
1FDF
0FDF
ENDCHAR
STARTCHAR 00E2
ENCODING 226
SWIDTH 540 0
DWIDTH 18 0
BBX 16 24 1 0
BITMAP
03E0
07E0
0770
0E70
0C38
1C18
0000
03C0
1FF8
3FFC
7FFE
7FFE
FFFF
FC1F
F81F
F81F
F81F
FC1F
FC1F
7FDF
7FDF
3FDF
1FDF
0FDF
ENDCHAR
STARTCHAR 00E3
ENCODING 227
SWIDTH 540 0
DWIDTH 18 0
BBX 16 24 1 0
BITMAP
000C
0798
0FF8
0FF0
1800
0000
0000
03C0
1FF8
3FFC
7FFE
7FFE
FFFF
FC1F
F81F
F81F
F81F
FC1F
FC1F
7FDF
7FDF
3FDF
1FDF
0FDF
ENDCHAR
STARTCHAR 00E4
ENCODING 228
SWIDTH 540 0
DWIDTH 18 0
BBX 16 23 1 0
BITMAP
0E78
1F78
0E78
0E30
0000
0000
03C0
1FF8
3FFC
7FFE
7FFE
FFFF
FC1F
F81F
F81F
F81F
FC1F
FC1F
7FDF
7FDF
3FDF
1FDF
0FDF
ENDCHAR
STARTCHAR 00E5
ENCODING 229
SWIDTH 540 0
DWIDTH 18 0
BBX 16 27 1 0
BITMAP
0080
03F0
07F0
0638
0E18
0E18
0738
07F0
03E0
0000
03C0
1FF8
3FFC
7FFE
7FFE
FFFF
FC1F
F81F
F81F
F81F
FC1F
FC1F
7FDF
7FDF
3FDF
1FDF
0FDF
ENDCHAR
STARTCHAR 00E6
ENCODING 230
SWIDTH 840 0
DWIDTH 28 0
BBX 27 17 0 0
BITMAP
07C07800
7FF1FF00
3FFBFF80
3FFFFFC0
387FCFC0
003F87E0
03FF1FE0
0FFF7FC0
3FFF3F00
7F1F3800
7C1F0180
F83F83C0
FC7FEFE0
FFFFFFE0
7FFFFFC0
3FF3FF80
1FC0FE00
ENDCHAR
STARTCHAR 00E7
ENCODING 231
SWIDTH 390 0
DWIDTH 13 0
BBX 11 25 1 -8
BITMAP
0060
0FE0
1FE0
3FE0
7FE0
FFE0
FC00
F800
F800
F800
FC00
FE00
7FE0
7FE0
3FE0
1FE0
03E0
0300
0300
03E0
01E0
00E0
18E0
1FE0
0F80
ENDCHAR
STARTCHAR 00E8
ENCODING 232
SWIDTH 540 0
DWIDTH 18 0
BBX 17 24 1 0
BITMAP
0F0000
078000
038000
01C000
00C000
00E000
000000
03E000
0FF800
3FFC00
3FFE00
7E3E00
FC7F00
F8FC00
FBF800
FBE000
F9C400
F80F00
FC1F80
7FFF00
7FFF00
3FFE00
1FFC00
07F000
ENDCHAR
STARTCHAR 00E9
ENCODING 233
SWIDTH 540 0
DWIDTH 18 0
BBX 17 24 1 0
BITMAP
00F000
00E000
01E000
01C000
038000
030000
000000
03E000
0FF800
3FFC00
3FFE00
7E3E00
FC7F00
F8FC00
FBF800
FBE000
F9C400
F80F00
FC1F80
7FFF00
7FFF00
3FFE00
1FFC00
07F000
ENDCHAR
STARTCHAR 00EA
ENCODING 234
SWIDTH 540 0
DWIDTH 18 0
BBX 17 24 1 0
BITMAP
03E000
07E000
077000
0E7000
0C3800
1C1800
000000
03E000
0FF800
3FFC00
3FFE00
7E3E00
FC7F00
F8FC00
FBF800
FBE000
F9C400
F80F00
FC1F80
7FFF00
7FFF00
3FFE00
1FFC00
07F000
ENDCHAR
STARTCHAR 00EB
ENCODING 235
SWIDTH 540 0
DWIDTH 18 0
BBX 17 23 1 0
BITMAP
0E7800
1E7800
1E7800
0C3000
000000
000000
03E000
0FF800
3FFC00
3FFE00
7E3E00
FC7F00
F8FC00
FBF800
FBE000
F9C400
F80F00
FC1F80
7FFF00
7FFF00
3FFE00
1FFC00
07F000
ENDCHAR
STARTCHAR 00EC
ENCODING 236
SWIDTH 240 0
DWIDTH 8 0
BBX 7 24 0 0
BITMAP
F0
78
38
1C
1C
0E
00
3E
3E
3E
3E
3E
3E
3E
3E
3E
3E
3E
3E
3E
3E
3E
3E
3E
ENDCHAR
STARTCHAR 00ED
ENCODING 237
SWIDTH 240 0
DWIDTH 8 0
BBX 6 24 2 0
BITMAP
3C
38
78
70
E0
C0
00
F8
F8
F8
F8
F8
F8
F8
F8
F8
F8
F8
F8
F8
F8
F8
F8
F8
ENDCHAR
STARTCHAR 00EE
ENCODING 238
SWIDTH 240 0
DWIDTH 8 0
BBX 10 24 -1 0
BITMAP
1F00
3F00
3F80
7380
61C0
C0C0
0000
1F00
1F00
1F00
1F00
1F00
1F00
1F00
1F00
1F00
1F00
1F00
1F00
1F00
1F00
1F00
1F00
1F00
ENDCHAR
STARTCHAR 00EF
ENCODING 239
SWIDTH 240 0
DWIDTH 8 0
BBX 10 23 -1 0
BITMAP
73C0
F3C0
F3C0
6180
0000
0000
1F00
1F00
1F00
1F00
1F00
1F00
1F00
1F00
1F00
1F00
1F00
1F00
1F00
1F00
1F00
1F00
1F00
ENDCHAR
STARTCHAR 00F0
ENCODING 240
SWIDTH 510 0
DWIDTH 17 0
BBX 16 23 1 0
BITMAP
0F80
0FF8
07F8
1FE0
1FE0
1BF0
01F8
06F8
1EFC
3F7E
7F7E
7FBE
FC3F
F81F
F81F
F81F
F81F
FC3F
7FFE
7FFE
3FFC
1FF8
0FF0
ENDCHAR
STARTCHAR 00F1
ENCODING 241
SWIDTH 510 0
DWIDTH 17 0
BBX 15 24 1 0
BITMAP
0018
0718
0FF0
1FF0
1800
0000
0000
03C0
1FF0
3FF8
3FFC
7FFE
7E7E
FC3E
FC3E
FC3E
FC3E
FC3E
FC3E
FC3E
FC3E
FC3E
FC3E
FC3E
ENDCHAR
STARTCHAR 00F2
ENCODING 242
SWIDTH 540 0
DWIDTH 18 0
BBX 16 24 1 0
BITMAP
0F00
0780
0380
01C0
00C0
00E0
0000
03E0
0FF8
3FFC
3FFE
7FFE
FE7F
FC3F
F81F
F81F
F81F
FC1F
FC3F
7FFF
7FFE
3FFC
1FF8
07F0
ENDCHAR
STARTCHAR 00F3
ENCODING 243
SWIDTH 540 0
DWIDTH 18 0
BBX 16 24 1 0
BITMAP
00F0
00E0
01E0
01C0
0380
0300
0000
03E0
0FF8
3FFC
3FFE
7FFE
FE7F
FC3F
F81F
F81F
F81F
FC1F
FC3F
7FFF
7FFE
3FFC
1FF8
07F0
ENDCHAR
STARTCHAR 00F4
ENCODING 244
SWIDTH 540 0
DWIDTH 18 0
BBX 16 24 1 0
BITMAP
03E0
07E0
07F0
0E70
0C38
1818
0000
03E0
0FF8
3FFC
3FFE
7FFE
FE7F
FC3F
F81F
F81F
F81F
FC1F
FC3F
7FFF
7FFE
3FFC
1FF8
07F0
ENDCHAR
STARTCHAR 00F5
ENCODING 245
SWIDTH 540 0
DWIDTH 18 0
BBX 16 24 1 0
BITMAP
0008
0798
0FF8
1FF0
1800
0000
0000
03E0
0FF8
3FFC
3FFE
7FFE
FE7F
FC3F
F81F
F81F
F81F
FC1F
FC3F
7FFF
7FFE
3FFC
1FF8
07F0
ENDCHAR
STARTCHAR 00F6
ENCODING 246
SWIDTH 540 0
DWIDTH 18 0
BBX 16 23 1 0
BITMAP
0E78
1E78
1E78
0E30
0000
0000
03E0
0FF8
3FFC
3FFE
7FFE
FE7F
FC3F
F81F
F81F
F81F
FC1F
FC3F
7FFF
7FFE
3FFC
1FF8
07F0
ENDCHAR
STARTCHAR 00F7
ENCODING 247
SWIDTH 810 0
DWIDTH 27 0
BBX 20 18 4 1
BITMAP
00F000
01F000
01F800
01F000
00F000
000000
000000
FFFFF0
FFFFF0
FFFFF0
FFFFF0
000000
000000
00E000
01F000
01F800
01F000
00F000
ENDCHAR
STARTCHAR 00F8
ENCODING 248
SWIDTH 540 0
DWIDTH 18 0
BBX 17 19 1 -2
BITMAP
000200
03C700
0FFF00
3FFE00
3FFE00
7FFE00
FE7F00
F8FF00
F9FF00
F9DF80
FB9F80
FF1F00
FF3F00
7FFF00
7FFE00
7FFC00
7FF800
F7F000
E00000
ENDCHAR
STARTCHAR 00F9
ENCODING 249
SWIDTH 510 0
DWIDTH 17 0
BBX 15 24 1 0
BITMAP
0F00
0700
0380
0380
01C0
00C0
0000
FC3E
FC3E
FC3E
FC3E
FC3E
FC3E
FC3E
FC3E
FC3E
FC3E
FC3E
7C3E
7FFE
7FFC
3FFC
1FF8
0FE0
ENDCHAR
STARTCHAR 00FA
ENCODING 250
SWIDTH 510 0
DWIDTH 17 0
BBX 15 24 1 0
BITMAP
00F0
00E0
01C0
0380
0380
0700
0000
FC3E
FC3E
FC3E
FC3E
FC3E
FC3E
FC3E
FC3E
FC3E
FC3E
FC3E
7C3E
7FFE
7FFC
3FFC
1FF8
0FE0
ENDCHAR
STARTCHAR 00FB
ENCODING 251
SWIDTH 510 0
DWIDTH 17 0
BBX 15 24 1 0
BITMAP
03C0
07E0
0FE0
0E70
1C30
1818
0000
FC3E
FC3E
FC3E
FC3E
FC3E
FC3E
FC3E
FC3E
FC3E
FC3E
FC3E
7C3E
7FFE
7FFC
3FFC
1FF8
0FE0
ENDCHAR
STARTCHAR 00FC
ENCODING 252
SWIDTH 510 0
DWIDTH 17 0
BBX 15 23 1 0
BITMAP
1E78
1E78
1E78
0C30
0000
0000
FC3E
FC3E
FC3E
FC3E
FC3E
FC3E
FC3E
FC3E
FC3E
FC3E
FC3E
7C3E
7FFE
7FFC
3FFC
1FF8
0FE0
ENDCHAR
STARTCHAR 00FD
ENCODING 253
SWIDTH 510 0
DWIDTH 17 0
BBX 15 31 1 -7
BITMAP
00F0
00E0
01C0
0380
0380
0700
0000
FC3E
FC3E
FC3E
FC3E
FC3E
FC3E
FC3E
FC3E
FC3E
FC3E
FC3E
7C3E
7FFE
7FFE
3FFC
1FF8
0FF0
07C0
07C0
07C0
07C0
07C0
07C0
07C0
ENDCHAR
STARTCHAR 00FE
ENCODING 254
SWIDTH 540 0
DWIDTH 18 0
BBX 17 30 1 -7
BITMAP
FC0000
FC0000
FC0000
FC0000
FC0000
FC0000
FFE000
FFF800
FFFC00
FFFE00
FFFF00
FF7F00
FC1F80
FC1F80
FC0F80
FC0F80
FC1F80
FC3F80
FFFF00
FFFF00
FFFE00
FFFC00
FFF000
FC0000
FC0000
FC0000
FC0000
FC0000
FC0000
FC0000
ENDCHAR
STARTCHAR 00FF
ENCODING 255
SWIDTH 510 0
DWIDTH 17 0
BBX 15 30 1 -7
BITMAP
1E78
1E78
1E78
0C30
0000
0000
FC3E
FC3E
FC3E
FC3E
FC3E
FC3E
FC3E
FC3E
FC3E
FC3E
FC3E
7C3E
7FFE
7FFE
3FFC
1FF8
0FF0
07C0
07C0
07C0
07C0
07C0
07C0
07C0
ENDCHAR
STARTCHAR 0102
ENCODING 258
SWIDTH 600 0
DWIDTH 20 0
BBX 17 30 2 0
BITMAP
181800
0C1800
0FF800
07F000
03E000
000000
03C000
0FF800
3FFC00
3FFE00
7FFF00
FFFF00
FE3F80
FC1F80
F81F80
F80F80
FBFF80
FBFF80
FBFF80
FBFF80
FBFF80
F80F80
F80F80
F80F80
F80F80
F80F80
F80F80
F80F80
F80F80
F80F80
ENDCHAR
STARTCHAR 0103
ENCODING 259
SWIDTH 540 0
DWIDTH 18 0
BBX 16 24 1 0
BITMAP
1818
0C18
0F78
0FF0
03E0
0000
0000
03C0
1FF8
3FFC
7FFE
7FFE
FFFF
FC1F
F81F
F81F
F81F
FC1F
FC1F
7FDF
7FDF
3FDF
1FDF
0FDF
ENDCHAR
STARTCHAR 0106
ENCODING 262
SWIDTH 480 0
DWIDTH 16 0
BBX 15 31 1 0
BITMAP
003C
0038
0070
00E0
00E0
01C0
0000
0000
00FE
03FE
0FFE
1FFE
3FFE
7FE0
7F00
FE00
FC00
FC00
FC00
FC00
FC00
FC00
FE00
7E00
7F80
3FF8
3FFE
1FFE
0FFE
03FE
007E
ENDCHAR
STARTCHAR 0107
ENCODING 263
SWIDTH 390 0
DWIDTH 13 0
BBX 12 24 1 0
BITMAP
01F0
01E0
03C0
0380
0700
0600
0000
0060
0FE0
1FE0
3FE0
7FE0
FFE0
FC00
F800
F800
F800
FC00
FE00
7FE0
7FE0
3FE0
1FE0
03E0
ENDCHAR
STARTCHAR 010C
ENCODING 268
SWIDTH 480 0
DWIDTH 16 0
BBX 15 31 1 0
BITMAP
070E
039C
03FC
01F8
00F8
00F0
0000
0000
00FE
03FE
0FFE
1FFE
3FFE
7FE0
7F00
FE00
FC00
FC00
FC00
FC00
FC00
FC00
FE00
7E00
7F80
3FF8
3FFE
1FFE
0FFE
03FE
007E
ENDCHAR
STARTCHAR 010D
ENCODING 269
SWIDTH 390 0
DWIDTH 13 0
BBX 12 24 1 0
BITMAP
1870
1C70
0EE0
0FC0
07C0
0780
0000
0060
0FE0
1FE0
3FE0
7FE0
FFE0
FC00
F800
F800
F800
FC00
FE00
7FE0
7FE0
3FE0
1FE0
03E0
ENDCHAR
STARTCHAR 0110
ENCODING 272
SWIDTH 630 0
DWIDTH 21 0
BBX 21 23 0 0
BITMAP
3FF800
3FFE00
3FFF00
3FFFC0
3FFFC0
3F3FE0
3F0FF0
3F07F0
3F03F0
FFC3F0
FFC1F8
FFC1F8
FFC1F8
3F03F0
3F03F0
3F07F0
3F0FE0
3F7FE0
3F7FC0
3F7F80
3F7F00
3F7E00
3F7000
ENDCHAR
STARTCHAR 0111
ENCODING 273
SWIDTH 570 0
DWIDTH 19 0
BBX 18 23 1 0
BITMAP
001F00
01FFC0
01FFC0
01FFC0
001F00
001F00
03DF00
0FDF00
3FDF00
7FDF00
7FDF00
FFDF00
FC1F00
F81F00
F81F00
F81F00
F81F00
FC3F00
7FFF00
7FFE00
3FFC00
1FF800
0FF000
ENDCHAR
STARTCHAR 011E
ENCODING 286
SWIDTH 750 0
DWIDTH 25 0
BBX 24 31 1 0
BITMAP
018180
018380
01FF00
00FF00
007C00
000000
000000
003E00
01FFC0
07FFE0
0FFFF8
1FFFF8
3FFFF0
7F81E0
7F0040
7E0000
FC0000
FC0FFF
FC0FFF
FC0FFF
FC0FFF
FC0FFE
FE007E
7E00FE
7F01FE
3FF7FC
3FFFF8
1FFFF8
0FFFF0
07FFC0
01FF80
ENDCHAR
STARTCHAR 011F
ENCODING 287
SWIDTH 540 0
DWIDTH 18 0
BBX 16 31 1 -7
BITMAP
1818
1C18
0F78
0FF0
03E0
0000
0000
03E0
1FF8
3FFC
7FFE
7FFE
FF7F
FC1F
F81F
F81F
F81F
FC1F
FC1F
7FDF
7FDF
3FDF
1FDF
07DF
001F
003F
3CFF
3FFE
3FFE
3FFC
3FF0
ENDCHAR
STARTCHAR 0128
ENCODING 296
SWIDTH 270 0
DWIDTH 9 0
BBX 10 31 0 0
BITMAP
00C0
7DC0
FF80
FF00
8000
0000
0000
0000
3F00
3F00
3F00
3F00
3F00
3F00
3F00
3F00
3F00
3F00
3F00
3F00
3F00
3F00
3F00
3F00
3F00
3F00
3F00
3F00
3F00
3F00
3F00
ENDCHAR
STARTCHAR 0129
ENCODING 297
SWIDTH 240 0
DWIDTH 8 0
BBX 10 24 -1 0
BITMAP
0040
3CC0
7FC0
7F80
C000
0000
0000
1F00
1F00
1F00
1F00
1F00
1F00
1F00
1F00
1F00
1F00
1F00
1F00
1F00
1F00
1F00
1F00
1F00
ENDCHAR
STARTCHAR 0130
ENCODING 304
SWIDTH 270 0
DWIDTH 9 0
BBX 6 31 2 0
BITMAP
30
78
78
78
00
00
00
00
FC
FC
FC
FC
FC
FC
FC
FC
FC
FC
FC
FC
FC
FC
FC
FC
FC
FC
FC
FC
FC
FC
FC
ENDCHAR
STARTCHAR 0131
ENCODING 305
SWIDTH 240 0
DWIDTH 8 0
BBX 5 17 2 0
BITMAP
F8
F8
F8
F8
F8
F8
F8
F8
F8
F8
F8
F8
F8
F8
F8
F8
F8
ENDCHAR
STARTCHAR 0141
ENCODING 321
SWIDTH 420 0
DWIDTH 14 0
BBX 15 23 0 0
BITMAP
3F00
3F00
3F00
3F00
3F00
3F20
3F60
3FE0
3FE0
3FC0
3F80
FF00
FF00
FF00
FF00
BF00
3F00
3FC0
3FFE
1FFE
1FFE
0FFE
03FE
ENDCHAR
STARTCHAR 0142
ENCODING 322
SWIDTH 270 0
DWIDTH 9 0
BBX 9 23 0 0
BITMAP
3E00
3E00
3E00
3E00
3E00
3E00
3E00
3F80
3F80
3F80
3F00
7E00
FE00
FE00
BE00
3E00
3E00
3E00
3E00
3E00
3E00
3E00
3E00
ENDCHAR
STARTCHAR 0152
ENCODING 338
SWIDTH 1020 0
DWIDTH 34 0
BBX 32 24 1 0
BITMAP
003C0000
01FF807F
07FFC1FF
0FFFF3FF
1FFFFFFF
3FFFFFFF
7FC3FFE0
7F00FF80
FE007F00
FE007F00
FC003FFF
FC003FFF
FC003FFF
FC003FFF
FC003FFF
FE007F00
7E00FF00
7F01FF80
3FEFFFF8
3FFFFFFF
1FFFF7FF
0FFFE3FF
07FFC0FF
01FF003F
ENDCHAR
STARTCHAR 0153
ENCODING 339
SWIDTH 870 0
DWIDTH 29 0
BBX 28 17 1 0
BITMAP
03C07C00
0FF1FF00
3FFFFF80
3FFFFFC0
7FFFC7E0
FE7F87E0
FC3F1FC0
F81F3F00
F81F3E00
F81F38C0
FC1F91F0
FC3FC3F0
7FFFFFF0
7FFFFFE0
3FFFFFC0
1FF9FF80
0FF0FE00
ENDCHAR
STARTCHAR 015E
ENCODING 350
SWIDTH 510 0
DWIDTH 17 0
BBX 16 31 1 -8
BITMAP
1FFC
3FFC
7FFC
7FFC
FFFC
FC00
FC00
FE00
7F80
7FE0
3FF0
1FFC
07FC
01FE
00FF
007F
003F
FFFF
FFFF
FFFE
FFFE
FFFC
FFF0
0180
0180
01F0
0078
0038
0C78
0FF0
03E0
ENDCHAR
STARTCHAR 015F
ENCODING 351
SWIDTH 420 0
DWIDTH 14 0
BBX 13 25 1 -8
BITMAP
03F0
3FF0
7FF0
7FF0
FFF0
F800
FE00
7F80
3FE0
1FF0
07F0
01F8
FFF8
FFF0
FFF0
FFE0
FFC0
0200
0300
07C0
01E0
00E0
10E0
1FE0
0F80
ENDCHAR
STARTCHAR 0160
ENCODING 352
SWIDTH 510 0
DWIDTH 17 0
BBX 16 31 1 0
BITMAP
1C38
0E70
0FF0
07E0
07C0
03C0
0000
0000
1FFC
3FFC
7FFC
7FFC
FFFC
FC00
FC00
FE00
7F80
7FE0
3FF0
1FFC
07FC
01FE
00FF
007F
003F
FFFF
FFFF
FFFE
FFFE
FFFC
FFF0
ENDCHAR
STARTCHAR 0161
ENCODING 353
SWIDTH 420 0
DWIDTH 14 0
BBX 13 24 1 0
BITMAP
30E0
38C0
1DC0
1F80
0F80
0F00
0000
03F0
3FF0
7FF0
7FF0
FFF0
F800
FE00
7F80
3FE0
1FF0
07F0
01F8
FFF8
FFF0
FFF0
FFE0
FFC0
ENDCHAR
STARTCHAR 0168
ENCODING 360
SWIDTH 600 0
DWIDTH 20 0
BBX 17 31 2 0
BITMAP
000800
079800
0FF800
1FF000
180000
000000
000000
000000
F80F80
F80F80
F80F80
F80F80
F80F80
F80F80
F80F80
F80F80
F80F80
F80F80
F80F80
F80F80
F80F80
F80F80
F81F80
FC1F80
FC1F80
FE7F80
FFFF00
7FFF00
3FFE00
1FFC00
0FF800
ENDCHAR
STARTCHAR 0169
ENCODING 361
SWIDTH 510 0
DWIDTH 17 0
BBX 15 24 1 0
BITMAP
0018
0718
0FF0
1FF0
1800
0000
0000
FC3E
FC3E
FC3E
FC3E
FC3E
FC3E
FC3E
FC3E
FC3E
FC3E
FC3E
7C3E
7FFE
7FFC
3FFC
1FF8
0FE0
ENDCHAR
STARTCHAR 0178
ENCODING 376
SWIDTH 540 0
DWIDTH 18 0
BBX 17 31 1 0
BITMAP
041000
0E3800
0F7800
0F7800
063000
000000
000000
000000
FC1F80
FC1F80
FC1F80
FC1F80
FC1F80
FC1F80
FC1F80
FC1F80
7C1F00
7E3F00
7FFF00
3FFE00
3FFE00
1FFC00
07F000
03E000
03E000
03E000
03E000
03E000
03E000
03E000
03E000
ENDCHAR
STARTCHAR 017D
ENCODING 381
SWIDTH 510 0
DWIDTH 17 0
BBX 17 31 0 0
BITMAP
0E1800
073800
077000
03F000
03E000
01E000
000000
000000
3FFF00
3FFF80
3FFF80
3FFF80
3FFF80
003F80
007F00
00FE00
01FC00
01FC00
03F800
07F000
07F000
0FE000
1FC000
3F8000
3F8000
7FFF80
FFFF80
FFFF80
FFFF80
7FFF80
3FFF80
ENDCHAR
STARTCHAR 017E
ENCODING 382
SWIDTH 450 0
DWIDTH 15 0
BBX 14 24 0 0
BITMAP
1830
1C70
0EE0
0FE0
07C0
07C0
0000
7FC0
7FFC
7FFC
7FFC
7FFC
01FC
03F8
07F0
0FE0
0FC0
1F80
3F00
7FFC
7FFC
FFFC
7FFC
3FFC
ENDCHAR
STARTCHAR 0192
ENCODING 402
SWIDTH 540 0
DWIDTH 18 0
BBX 18 30 0 -7
BITMAP
003FC0
007FC0
00FFC0
00FFC0
00FC00
00F800
01F800
01F800
3FFF80
3FFF80
3FFF80
3FFF80
3FFF80
03F000
03F000
03F000
03F000
03E000
03E000
03E000
07E000
07E000
07E000
07E000
07C000
1FC000
FFC000
FFC000
FF8000
FE0000
ENDCHAR
STARTCHAR 01A0
ENCODING 416
SWIDTH 750 0
DWIDTH 25 0
BBX 24 25 1 0
BITMAP
00000F
003C1F
01FF9E
07FFFE
0FFFFC
1FFFFC
3FFFFC
7FC3FC
7F00FE
FE007E
FE007F
FC003F
FC003F
FC003F
FC003F
FC003F
FE007E
7E00FE
7F01FE
3FEFFC
3FFFFC
1FFFF8
0FFFF0
07FFC0
01FF80
ENDCHAR
STARTCHAR 01A1
ENCODING 417
SWIDTH 540 0
DWIDTH 18 0
BBX 18 19 1 0
BITMAP
0003C0
0007C0
03E780
0FFF80
3FFF00
3FFF00
7FFE00
FE7F00
FC3F00
F81F00
F81F00
F81F00
FC1F00
FC3F00
7FFF00
7FFE00
3FFC00
1FF800
07F000
ENDCHAR
STARTCHAR 01AF
ENCODING 431
SWIDTH 660 0
DWIDTH 22 0
BBX 22 25 2 0
BITMAP
00007C
000078
F80FF8
F80FF0
F80FF0
F80FE0
F80FE0
F80F80
F80F80
F80F80
F80F80
F80F80
F80F80
F80F80
F80F80
F80F80
F81F80
FC1F80
FC1F80
FE7F80
FFFF00
7FFF00
3FFE00
1FFC00
0FF800
ENDCHAR
STARTCHAR 01B0
ENCODING 432
SWIDTH 570 0
DWIDTH 19 0
BBX 19 19 1 0
BITMAP
0001E0
0001E0
FC3FC0
FC3FC0
FC3F80
FC3F80
FC3F00
FC3E00
FC3E00
FC3E00
FC3E00
FC3E00
FC3E00
7C3E00
7FFE00
7FFC00
3FFC00
1FF800
0FE000
ENDCHAR
STARTCHAR 02C6
ENCODING 710
SWIDTH 480 0
DWIDTH 16 0
BBX 10 6 3 18
BITMAP
1F00
3F00
3B80
7380
61C0
E0C0
ENDCHAR
STARTCHAR 02C7
ENCODING 711
SWIDTH 480 0
DWIDTH 16 0
BBX 9 6 4 18
BITMAP
C380
E300
7700
7E00
3E00
3C00
ENDCHAR
STARTCHAR 02C9
ENCODING 713
SWIDTH 480 0
DWIDTH 16 0
BBX 9 3 4 20
BITMAP
FF80
FF80
FF80
ENDCHAR
STARTCHAR 02D8
ENCODING 728
SWIDTH 480 0
DWIDTH 16 0
BBX 10 5 3 19
BITMAP
C0C0
E0C0
7BC0
7F80
3F00
ENDCHAR
STARTCHAR 02D9
ENCODING 729
SWIDTH 480 0
DWIDTH 16 0
BBX 4 5 6 19
BITMAP
60
F0
F0
F0
20
ENDCHAR
STARTCHAR 02DA
ENCODING 730
SWIDTH 480 0
DWIDTH 16 0
BBX 9 9 4 18
BITMAP
3C00
7F00
F700
E380
C380
E380
7F00
7E00
1800
ENDCHAR
STARTCHAR 02DB
ENCODING 731
SWIDTH 480 0
DWIDTH 16 0
BBX 5 7 6 -7
BITMAP
30
60
C0
C0
E0
F8
F8
ENDCHAR
STARTCHAR 02DC
ENCODING 732
SWIDTH 480 0
DWIDTH 16 0
BBX 10 5 3 19
BITMAP
0040
3CC0
7FC0
7F80
C000
ENDCHAR
STARTCHAR 02DD
ENCODING 733
SWIDTH 480 0
DWIDTH 16 0
BBX 10 6 5 19
BITMAP
39C0
7BC0
7380
6700
E600
C600
ENDCHAR
STARTCHAR 0394
ENCODING 916
SWIDTH 690 0
DWIDTH 23 0
BBX 24 24 0 0
BITMAP
007E00
00FF00
00FF00
01FF00
01FF80
01FF80
03FFC0
03FFC0
03E7C0
07E7E0
07E7E0
07C3E0
0FC3F0
0FC3F0
1F81F0
1F81F8
1F81F8
3F00FC
3F00FC
3FFFFC
7FFFFE
7FFFFE
7FFFFE
FFFFFF
ENDCHAR
STARTCHAR 03A9
ENCODING 937
SWIDTH 780 0
DWIDTH 26 0
BBX 25 25 1 0
BITMAP
001C0000
01FFC000
07FFF000
0FFFF800
1FFFFC00
3FFFFC00
3F81FE00
7F00FE00
7F007F00
7E007F00
7E003F00
7E003F00
7E003F00
7E003F00
7E003F00
7E007E00
3F007E00
1F00FC00
1F81F800
0FC1F000
FFC1FF80
FFC1FF80
FFC1FF80
FFC1FF80
FFC1FF80
ENDCHAR
STARTCHAR 03BC
ENCODING 956
SWIDTH 630 0
DWIDTH 21 0
BBX 21 25 -1 -7
BITMAP
0FC0F8
0FC1F8
0FC1F8
0FC1F8
1F81F8
1F81F8
1F81F8
1F81F0
1F83F0
1F83F0
1F03F0
3F03F0
3F87F0
3F8FE0
3FFFE0
3FFFE0
3FFBE0
7EF7E0
7E0000
7E0000
7E0000
7E0000
7C0000
FC0000
FC0000
ENDCHAR
STARTCHAR 03C0
ENCODING 960
SWIDTH 720 0
DWIDTH 24 0
BBX 25 18 0 0
BITMAP
07FFFF80
3FFFFF80
7FFFFF80
7FFFFF00
FBF0F800
F3F1F800
03F1F800
03E1F800
07E1F800
07E1F800
07E1F000
07E3F000
07E3F000
07C3F000
0FC3F000
0FC3F000
0FC3F000
0FC3E000
ENDCHAR
STARTCHAR 1EA0
ENCODING 7840
SWIDTH 600 0
DWIDTH 20 0
BBX 17 33 2 -9
BITMAP
03C000
0FF800
3FFC00
3FFE00
7FFF00
FFFF00
FE3F80
FC1F80
F81F80
F80F80
FBFF80
FBFF80
FBFF80
FBFF80
FBFF80
F80F80
F80F80
F80F80
F80F80
F80F80
F80F80
F80F80
F80F80
F80F80
000000
000000
01C000
03E000
07F000
07F000
07F000
03E000
01C000
ENDCHAR
STARTCHAR 1EA1
ENCODING 7841
SWIDTH 540 0
DWIDTH 18 0
BBX 16 26 1 -9
BITMAP
03C0
1FF8
3FFC
7FFE
7FFE
FFFF
FC1F
F81F
F81F
F81F
FC1F
FC1F
7FDF
7FDF
3FDF
1FDF
0FDF
0000
0000
01C0
03E0
07F0
07F0
07F0
03E0
01C0
ENDCHAR
STARTCHAR 1EA2
ENCODING 7842
SWIDTH 600 0
DWIDTH 20 0
BBX 17 32 2 0
BITMAP
01C000
03E000
073000
003000
00F000
00E000
008000
000000
03C000
0FF800
3FFC00
3FFE00
7FFF00
FFFF00
FE3F80
FC1F80
F81F80
F80F80
FBFF80
FBFF80
FBFF80
FBFF80
FBFF80
F80F80
F80F80
F80F80
F80F80
F80F80
F80F80
F80F80
F80F80
F80F80
ENDCHAR
STARTCHAR 1EA3
ENCODING 7843
SWIDTH 540 0
DWIDTH 18 0
BBX 16 26 1 0
BITMAP
0080
03E0
0770
0630
0070
01E0
01C0
0180
0000
03C0
1FF8
3FFC
7FFE
7FFE
FFFF
FC1F
F81F
F81F
F81F
FC1F
FC1F
7FDF
7FDF
3FDF
1FDF
0FDF
ENDCHAR
STARTCHAR 1EA4
ENCODING 7844
SWIDTH 600 0
DWIDTH 20 0
BBX 17 37 2 0
BITMAP
01E000
03C000
038000
070000
070000
0E0000
03C000
03E000
07F000
077000
0E3800
0C1800
000000
03C000
0FF800
3FFC00
3FFE00
7FFF00
FFFF00
FE3F80
FC1F80
F81F80
F80F80
FBFF80
FBFF80
FBFF80
FBFF80
FBFF80
F80F80
F80F80
F80F80
F80F80
F80F80
F80F80
F80F80
F80F80
F80F80
ENDCHAR
STARTCHAR 1EA5
ENCODING 7845
SWIDTH 540 0
DWIDTH 18 0
BBX 16 31 1 0
BITMAP
01E0
01C0
0380
0780
0700
0E00
0000
03E0
07E0
0770
0E70
0C38
1C18
0000
03C0
1FF8
3FFC
7FFE
7FFE
FFFF
FC1F
F81F
F81F
F81F
FC1F
FC1F
7FDF
7FDF
3FDF
1FDF
0FDF
ENDCHAR
STARTCHAR 1EA6
ENCODING 7846
SWIDTH 600 0
DWIDTH 20 0
BBX 17 37 2 0
BITMAP
03C000
01C000
00E000
00F000
007000
003800
03C000
03E000
07F000
077000
0E3800
0C1800
000000
03C000
0FF800
3FFC00
3FFE00
7FFF00
FFFF00
FE3F80
FC1F80
F81F80
F80F80
FBFF80
FBFF80
FBFF80
FBFF80
FBFF80
F80F80
F80F80
F80F80
F80F80
F80F80
F80F80
F80F80
F80F80
F80F80
ENDCHAR
STARTCHAR 1EA7
ENCODING 7847
SWIDTH 540 0
DWIDTH 18 0
BBX 16 31 1 0
BITMAP
03C0
03C0
01E0
00E0
0070
0030
0000
03E0
07E0
0770
0E70
0C38
1C18
0000
03C0
1FF8
3FFC
7FFE
7FFE
FFFF
FC1F
F81F
F81F
F81F
FC1F
FC1F
7FDF
7FDF
3FDF
1FDF
0FDF
ENDCHAR
STARTCHAR 1EA8
ENCODING 7848
SWIDTH 600 0
DWIDTH 20 0
BBX 17 37 2 1
BITMAP
001E00
003F00
003300
000300
000F00
000C00
03CC00
03E000
07F000
077000
0E3800
0C1800
000000
03C000
0FF800
3FFC00
3FFE00
7FFF00
FFFF00
FE3F80
FC1F80
F81F80
F80F80
FBFF80
FBFF80
FBFF80
FBFF80
FBFF80
F80F80
F80F80
F80F80
F80F80
F80F80
F80F80
F80F80
F80F80
F80F80
ENDCHAR
STARTCHAR 1EA9
ENCODING 7849
SWIDTH 540 0
DWIDTH 18 0
BBX 16 31 1 0
BITMAP
001E
003F
0033
0003
000F
000E
0008
03E0
07E0
0770
0E70
0C38
1C18
0000
03C0
1FF8
3FFC
7FFE
7FFE
FFFF
FC1F
F81F
F81F
F81F
FC1F
FC1F
7FDF
7FDF
3FDF
1FDF
0FDF
ENDCHAR
STARTCHAR 1EAA
ENCODING 7850
SWIDTH 600 0
DWIDTH 20 0
BBX 17 36 2 0
BITMAP
010400
07FC00
07FC00
0C7000
000000
03C000
03E000
07F000
077000
0E3800
0C1800
000000
03C000
0FF800
3FFC00
3FFE00
7FFF00
FFFF00
FE3F80
FC1F80
F81F80
F80F80
FBFF80
FBFF80
FBFF80
FBFF80
FBFF80
F80F80
F80F80
F80F80
F80F80
F80F80
F80F80
F80F80
F80F80
F80F80
ENDCHAR
STARTCHAR 1EAB
ENCODING 7851
SWIDTH 540 0
DWIDTH 18 0
BBX 16 30 1 0
BITMAP
0004
03FC
07FC
0EF8
0C00
0000
03E0
07E0
0770
0E70
0C38
1C18
0000
03C0
1FF8
3FFC
7FFE
7FFE
FFFF
FC1F
F81F
F81F
F81F
FC1F
FC1F
7FDF
7FDF
3FDF
1FDF
0FDF
ENDCHAR
STARTCHAR 1EAC
ENCODING 7852
SWIDTH 600 0
DWIDTH 20 0
BBX 17 40 2 -9
BITMAP
03C000
03E000
07F000
077000
0E3800
0C1800
000000
03C000
0FF800
3FFC00
3FFE00
7FFF00
FFFF00
FE3F80
FC1F80
F81F80
F80F80
FBFF80
FBFF80
FBFF80
FBFF80
FBFF80
F80F80
F80F80
F80F80
F80F80
F80F80
F80F80
F80F80
F80F80
F80F80
000000
000000
01C000
03E000
07F000
07F000
07F000
03E000
01C000
ENDCHAR
STARTCHAR 1EAD
ENCODING 7853
SWIDTH 540 0
DWIDTH 18 0
BBX 16 33 1 -9
BITMAP
03E0
07E0
0770
0E70
0C38
1C18
0000
03C0
1FF8
3FFC
7FFE
7FFE
FFFF
FC1F
F81F
F81F
F81F
FC1F
FC1F
7FDF
7FDF
3FDF
1FDF
0FDF
0000
0000
01C0
03E0
07F0
07F0
07F0
03E0
01C0
ENDCHAR
STARTCHAR 1EAE
ENCODING 7854
SWIDTH 600 0
DWIDTH 20 0
BBX 17 37 2 0
BITMAP
007800
00F000
00E000
01C000
038000
030000
000000
181800
0C1800
0FF800
07F000
03E000
000000
03C000
0FF800
3FFC00
3FFE00
7FFF00
FFFF00
FE3F80
FC1F80
F81F80
F80F80
FBFF80
FBFF80
FBFF80
FBFF80
FBFF80
F80F80
F80F80
F80F80
F80F80
F80F80
F80F80
F80F80
F80F80
F80F80
ENDCHAR
STARTCHAR 1EAF
ENCODING 7855
SWIDTH 540 0
DWIDTH 18 0
BBX 16 31 1 0
BITMAP
0078
00F0
00E0
01C0
0180
0300
0000
1818
0C18
0F78
0FF0
03E0
0000
0000
03C0
1FF8
3FFC
7FFE
7FFE
FFFF
FC1F
F81F
F81F
F81F
FC1F
FC1F
7FDF
7FDF
3FDF
1FDF
0FDF
ENDCHAR
STARTCHAR 1EB0
ENCODING 7856
SWIDTH 600 0
DWIDTH 20 0
BBX 17 37 2 0
BITMAP
0F0000
078000
038000
01C000
00C000
006000
000000
181800
0C1800
0FF800
07F000
03E000
000000
03C000
0FF800
3FFC00
3FFE00
7FFF00
FFFF00
FE3F80
FC1F80
F81F80
F80F80
FBFF80
FBFF80
FBFF80
FBFF80
FBFF80
F80F80
F80F80
F80F80
F80F80
F80F80
F80F80
F80F80
F80F80
F80F80
ENDCHAR
STARTCHAR 1EB1
ENCODING 7857
SWIDTH 540 0
DWIDTH 18 0
BBX 16 31 1 0
BITMAP
0F00
0780
0380
01C0
01C0
00E0
0000
1818
0C18
0F78
0FF0
03E0
0000
0000
03C0
1FF8
3FFC
7FFE
7FFE
FFFF
FC1F
F81F
F81F
F81F
FC1F
FC1F
7FDF
7FDF
3FDF
1FDF
0FDF
ENDCHAR
STARTCHAR 1EB2
ENCODING 7858
SWIDTH 600 0
DWIDTH 20 0
BBX 17 37 2 0
BITMAP
03E000
07F000
063000
007000
00E000
00C000
008000
181800
0C1800
0FF800
07F000
03E000
000000
03C000
0FF800
3FFC00
3FFE00
7FFF00
FFFF00
FE3F80
FC1F80
F81F80
F80F80
FBFF80
FBFF80
FBFF80
FBFF80
FBFF80
F80F80
F80F80
F80F80
F80F80
F80F80
F80F80
F80F80
F80F80
F80F80
ENDCHAR
STARTCHAR 1EB3
ENCODING 7859
SWIDTH 540 0
DWIDTH 18 0
BBX 16 31 1 0
BITMAP
01C0
03E0
0630
0030
01E0
01C0
0180
1818
0C18
0F78
0FF0
03E0
0000
0000
03C0
1FF8
3FFC
7FFE
7FFE
FFFF
FC1F
F81F
F81F
F81F
FC1F
FC1F
7FDF
7FDF
3FDF
1FDF
0FDF
ENDCHAR
STARTCHAR 1EB4
ENCODING 7860
SWIDTH 600 0
DWIDTH 20 0
BBX 17 36 2 0
BITMAP
000C00
07F800
0FF800
0C7000
000000
000000
181800
0C1800
0FF800
07F000
03E000
000000
03C000
0FF800
3FFC00
3FFE00
7FFF00
FFFF00
FE3F80
FC1F80
F81F80
F80F80
FBFF80
FBFF80
FBFF80
FBFF80
FBFF80
F80F80
F80F80
F80F80
F80F80
F80F80
F80F80
F80F80
F80F80
F80F80
ENDCHAR
STARTCHAR 1EB5
ENCODING 7861
SWIDTH 540 0
DWIDTH 18 0
BBX 16 30 1 0
BITMAP
000C
07D8
0FF8
0DF0
1800
0000
1818
0C18
0F78
0FF0
03E0
0000
0000
03C0
1FF8
3FFC
7FFE
7FFE
FFFF
FC1F
F81F
F81F
F81F
FC1F
FC1F
7FDF
7FDF
3FDF
1FDF
0FDF
ENDCHAR
STARTCHAR 1EB6
ENCODING 7862
SWIDTH 600 0
DWIDTH 20 0
BBX 17 39 2 -9
BITMAP
181800
0C1800
0FF800
07F000
03E000
000000
03C000
0FF800
3FFC00
3FFE00
7FFF00
FFFF00
FE3F80
FC1F80
F81F80
F80F80
FBFF80
FBFF80
FBFF80
FBFF80
FBFF80
F80F80
F80F80
F80F80
F80F80
F80F80
F80F80
F80F80
F80F80
F80F80
000000
000000
01C000
03E000
07F000
07F000
07F000
03E000
01C000
ENDCHAR
STARTCHAR 1EB7
ENCODING 7863
SWIDTH 540 0
DWIDTH 18 0
BBX 16 33 1 -9
BITMAP
1818
0C18
0F78
0FF0
03E0
0000
0000
03C0
1FF8
3FFC
7FFE
7FFE
FFFF
FC1F
F81F
F81F
F81F
FC1F
FC1F
7FDF
7FDF
3FDF
1FDF
0FDF
0000
0000
01C0
03E0
07F0
07F0
07F0
03E0
01C0
ENDCHAR
STARTCHAR 1EB8
ENCODING 7864
SWIDTH 510 0
DWIDTH 17 0
BBX 15 32 1 -9
BITMAP
00FE
03FE
0FFE
1FFE
3FFE
7FC0
7F00
FE00
FC00
FFFE
FFFE
FFFE
FFFE
FFFE
FE00
7E00
7F00
3FF0
3FFE
1FFE
0FFE
03FE
007E
0000
0000
00F0
01F8
01F8
01F8
01F8
01F8
0060
ENDCHAR
STARTCHAR 1EB9
ENCODING 7865
SWIDTH 540 0
DWIDTH 18 0
BBX 17 26 1 -9
BITMAP
03E000
0FF800
3FFC00
3FFE00
7E3E00
FC7F00
F8FC00
FBF800
FBE000
F9C400
F80F00
FC1F80
7FFF00
7FFF00
3FFE00
1FFC00
07F000
000000
000000
01C000
07E000
07E000
07F000
07E000
07E000
01C000
ENDCHAR
STARTCHAR 1EBA
ENCODING 7866
SWIDTH 510 0
DWIDTH 17 0
BBX 15 32 1 0
BITMAP
003C
007E
00E6
0006
001E
001C
0010
0000
0000
00FE
03FE
0FFE
1FFE
3FFE
7FC0
7F00
FE00
FC00
FFFE
FFFE
FFFE
FFFE
FFFE
FE00
7E00
7F00
3FF0
3FFE
1FFE
0FFE
03FE
007E
ENDCHAR
STARTCHAR 1EBB
ENCODING 7867
SWIDTH 540 0
DWIDTH 18 0
BBX 17 26 1 0
BITMAP
008000
03E000
077000
063000
007000
01E000
01C000
018000
000000
03E000
0FF800
3FFC00
3FFE00
7E3E00
FC7F00
F8FC00
FBF800
FBE000
F9C400
F80F00
FC1F80
7FFF00
7FFF00
3FFE00
1FFC00
07F000
ENDCHAR
STARTCHAR 1EBC
ENCODING 7868
SWIDTH 510 0
DWIDTH 17 0
BBX 15 31 1 0
BITMAP
0006
01E6
03FE
07FC
0600
0000
0000
0000
00FE
03FE
0FFE
1FFE
3FFE
7FC0
7F00
FE00
FC00
FFFE
FFFE
FFFE
FFFE
FFFE
FE00
7E00
7F00
3FF0
3FFE
1FFE
0FFE
03FE
007E
ENDCHAR
STARTCHAR 1EBD
ENCODING 7869
SWIDTH 540 0
DWIDTH 18 0
BBX 17 24 1 0
BITMAP
001800
071800
0FF000
1FF000
180000
000000
000000
03E000
0FF800
3FFC00
3FFE00
7E3E00
FC7F00
F8FC00
FBF800
FBE000
F9C400
F80F00
FC1F80
7FFF00
7FFF00
3FFE00
1FFC00
07F000
ENDCHAR
STARTCHAR 1EBE
ENCODING 7870
SWIDTH 510 0
DWIDTH 17 0
BBX 15 37 1 0
BITMAP
00F8
00F0
01E0
01C0
0380
0300
00F0
01F0
01F8
03BC
039C
070E
0000
0000
00FE
03FE
0FFE
1FFE
3FFE
7FC0
7F00
FE00
FC00
FFFE
FFFE
FFFE
FFFE
FFFE
FE00
7E00
7F00
3FF0
3FFE
1FFE
0FFE
03FE
007E
ENDCHAR
STARTCHAR 1EBF
ENCODING 7871
SWIDTH 540 0
DWIDTH 18 0
BBX 17 31 1 0
BITMAP
01E000
03C000
038000
070000
070000
0E0000
000000
03E000
07E000
077000
0E7000
0C3800
1C1800
000000
03E000
0FF800
3FFC00
3FFE00
7E3E00
FC7F00
F8FC00
FBF800
FBE000
F9C400
F80F00
FC1F80
7FFF00
7FFF00
3FFE00
1FFC00
07F000
ENDCHAR
STARTCHAR 1EC0
ENCODING 7872
SWIDTH 510 0
DWIDTH 17 0
BBX 15 37 1 0
BITMAP
01E0
00F0
0070
0038
001C
000C
00F0
01F0
01F8
03BC
039C
070E
0000
0000
00FE
03FE
0FFE
1FFE
3FFE
7FC0
7F00
FE00
FC00
FFFE
FFFE
FFFE
FFFE
FFFE
FE00
7E00
7F00
3FF0
3FFE
1FFE
0FFE
03FE
007E
ENDCHAR
STARTCHAR 1EC1
ENCODING 7873
SWIDTH 540 0
DWIDTH 18 0
BBX 17 31 1 0
BITMAP
03C000
03C000
01E000
00E000
007000
003000
000000
03E000
07E000
077000
0E7000
0C3800
1C1800
000000
03E000
0FF800
3FFC00
3FFE00
7E3E00
FC7F00
F8FC00
FBF800
FBE000
F9C400
F80F00
FC1F80
7FFF00
7FFF00
3FFE00
1FFC00
07F000
ENDCHAR
STARTCHAR 1EC2
ENCODING 7874
SWIDTH 510 0
DWIDTH 17 0
BBX 18 38 1 0
BITMAP
000200
000F80
001F80
0018C0
0001C0
000780
000700
00F600
01F000
01F800
03BC00
039C00
070E00
000000
000000
00FE00
03FE00
0FFE00
1FFE00
3FFE00
7FC000
7F0000
FE0000
FC0000
FFFE00
FFFE00
FFFE00
FFFE00
FFFE00
FE0000
7E0000
7F0000
3FF000
3FFE00
1FFE00
0FFE00
03FE00
007E00
ENDCHAR
STARTCHAR 1EC3
ENCODING 7875
SWIDTH 540 0
DWIDTH 18 0
BBX 17 31 1 0
BITMAP
001E00
003F00
007300
000300
000F00
000E00
000800
03E000
07E000
077000
0E7000
0C3800
1C1800
000000
03E000
0FF800
3FFC00
3FFE00
7E3E00
FC7F00
F8FC00
FBF800
FBE000
F9C400
F80F00
FC1F80
7FFF00
7FFF00
3FFE00
1FFC00
07F000
ENDCHAR
STARTCHAR 1EC4
ENCODING 7876
SWIDTH 510 0
DWIDTH 17 0
BBX 16 36 1 0
BITMAP
0043
01FF
03FE
031C
0000
00F0
01F0
01F8
03BC
039C
070E
0000
0000
00FE
03FE
0FFE
1FFE
3FFE
7FC0
7F00
FE00
FC00
FFFE
FFFE
FFFE
FFFE
FFFE
FE00
7E00
7F00
3FF0
3FFE
1FFE
0FFE
03FE
007E
ENDCHAR
STARTCHAR 1EC5
ENCODING 7877
SWIDTH 540 0
DWIDTH 18 0
BBX 17 30 1 0
BITMAP
000C00
07FC00
07FC00
0EF800
0C0000
000000
03E000
07E000
077000
0E7000
0C3800
1C1800
000000
03E000
0FF800
3FFC00
3FFE00
7E3E00
FC7F00
F8FC00
FBF800
FBE000
F9C400
F80F00
FC1F80
7FFF00
7FFF00
3FFE00
1FFC00
07F000
ENDCHAR
STARTCHAR 1EC6
ENCODING 7878
SWIDTH 510 0
DWIDTH 17 0
BBX 15 40 1 -9
BITMAP
00F0
01F0
01F8
03BC
039C
070E
0000
0000
00FE
03FE
0FFE
1FFE
3FFE
7FC0
7F00
FE00
FC00
FFFE
FFFE
FFFE
FFFE
FFFE
FE00
7E00
7F00
3FF0
3FFE
1FFE
0FFE
03FE
007E
0000
0000
00F0
01F8
01F8
01F8
01F8
01F8
0060
ENDCHAR
STARTCHAR 1EC7
ENCODING 7879
SWIDTH 540 0
DWIDTH 18 0
BBX 17 33 1 -9
BITMAP
03E000
07E000
077000
0E7000
0C3800
1C1800
000000
03E000
0FF800
3FFC00
3FFE00
7E3E00
FC7F00
F8FC00
FBF800
FBE000
F9C400
F80F00
FC1F80
7FFF00
7FFF00
3FFE00
1FFC00
07F000
000000
000000
01C000
07E000
07E000
07F000
07E000
07E000
01C000
ENDCHAR
STARTCHAR 1EC8
ENCODING 7880
SWIDTH 270 0
DWIDTH 9 0
BBX 6 32 2 0
BITMAP
78
FC
CC
0C
3C
38
20
00
00
FC
FC
FC
FC
FC
FC
FC
FC
FC
FC
FC
FC
FC
FC
FC
FC
FC
FC
FC
FC
FC
FC
FC
ENDCHAR
STARTCHAR 1EC9
ENCODING 7881
SWIDTH 240 0
DWIDTH 8 0
BBX 7 26 1 0
BITMAP
10
7C
EE
C6
0E
3C
38
30
00
7C
7C
7C
7C
7C
7C
7C
7C
7C
7C
7C
7C
7C
7C
7C
7C
7C
ENDCHAR
STARTCHAR 1ECA
ENCODING 7882
SWIDTH 270 0
DWIDTH 9 0
BBX 7 32 1 -9
BITMAP
7E
7E
7E
7E
7E
7E
7E
7E
7E
7E
7E
7E
7E
7E
7E
7E
7E
7E
7E
7E
7E
7E
7E
00
00
38
7C
7E
FE
7E
7C
38
ENDCHAR
STARTCHAR 1ECB
ENCODING 7883
SWIDTH 240 0
DWIDTH 8 0
BBX 7 33 1 -9
BITMAP
38
7C
FC
FC
FC
78
00
7C
7C
7C
7C
7C
7C
7C
7C
7C
7C
7C
7C
7C
7C
7C
7C
7C
00
00
38
FC
FC
FE
FC
7C
38
ENDCHAR
STARTCHAR 1ECC
ENCODING 7884
SWIDTH 750 0
DWIDTH 25 0
BBX 24 33 1 -9
BITMAP
003C00
01FF80
07FFE0
0FFFF0
1FFFF8
3FFFFC
7FC3FC
7F00FE
FE007E
FE007F
FC003F
FC003F
FC003F
FC003F
FC003F
FE007E
7E00FE
7F01FE
3FEFFC
3FFFFC
1FFFF8
0FFFF0
07FFC0
01FF80
000000
000000
003800
007E00
007E00
007E00
007E00
007E00
003800
ENDCHAR
STARTCHAR 1ECD
ENCODING 7885
SWIDTH 540 0
DWIDTH 18 0
BBX 16 26 1 -9
BITMAP
03E0
0FF8
3FFC
3FFE
7FFE
FE7F
FC3F
F81F
F81F
F81F
FC1F
FC3F
7FFF
7FFE
3FFC
1FF8
07F0
0000
0000
01C0
07E0
07E0
07F0
07E0
07E0
01C0
ENDCHAR
STARTCHAR 1ECE
ENCODING 7886
SWIDTH 750 0
DWIDTH 25 0
BBX 24 32 1 0
BITMAP
003C00
007E00
006600
000600
001E00
001C00
001800
000000
003C00
01FF80
07FFE0
0FFFF0
1FFFF8
3FFFFC
7FC3FC
7F00FE
FE007E
FE007F
FC003F
FC003F
FC003F
FC003F
FC003F
FE007E
7E00FE
7F01FE
3FEFFC
3FFFFC
1FFFF8
0FFFF0
07FFC0
01FF80
ENDCHAR
STARTCHAR 1ECF
ENCODING 7887
SWIDTH 540 0
DWIDTH 18 0
BBX 16 26 1 0
BITMAP
0080
03E0
0770
0630
0070
01E0
01C0
0180
0000
03E0
0FF8
3FFC
3FFE
7FFE
FE7F
FC3F
F81F
F81F
F81F
FC1F
FC3F
7FFF
7FFE
3FFC
1FF8
07F0
ENDCHAR
STARTCHAR 1ED0
ENCODING 7888
SWIDTH 750 0
DWIDTH 25 0
BBX 24 37 1 0
BITMAP
003E00
003C00
007800
007000
00E000
00C000
003C00
007C00
007E00
00EE00
00E700
01C380
000000
003C00
01FF80
07FFE0
0FFFF0
1FFFF8
3FFFFC
7FC3FC
7F00FE
FE007E
FE007F
FC003F
FC003F
FC003F
FC003F
FC003F
FE007E
7E00FE
7F01FE
3FEFFC
3FFFFC
1FFFF8
0FFFF0
07FFC0
01FF80
ENDCHAR
STARTCHAR 1ED1
ENCODING 7889
SWIDTH 540 0
DWIDTH 18 0
BBX 16 31 1 0
BITMAP
01E0
03C0
0380
0700
0700
0E00
0000
03E0
07E0
07F0
0E70
0C38
1818
0000
03E0
0FF8
3FFC
3FFE
7FFE
FE7F
FC3F
F81F
F81F
F81F
FC1F
FC3F
7FFF
7FFE
3FFC
1FF8
07F0
ENDCHAR
STARTCHAR 1ED2
ENCODING 7890
SWIDTH 750 0
DWIDTH 25 0
BBX 24 37 1 0
BITMAP
007800
003C00
001C00
000E00
000600
000300
003C00
007C00
007E00
00EE00
00E700
01C380
000000
003C00
01FF80
07FFE0
0FFFF0
1FFFF8
3FFFFC
7FC3FC
7F00FE
FE007E
FE007F
FC003F
FC003F
FC003F
FC003F
FC003F
FE007E
7E00FE
7F01FE
3FEFFC
3FFFFC
1FFFF8
0FFFF0
07FFC0
01FF80
ENDCHAR
STARTCHAR 1ED3
ENCODING 7891
SWIDTH 540 0
DWIDTH 18 0
BBX 16 31 1 0
BITMAP
07C0
03C0
01E0
00E0
0070
0030
0000
03E0
07E0
07F0
0E70
0C38
1818
0000
03E0
0FF8
3FFC
3FFE
7FFE
FE7F
FC3F
F81F
F81F
F81F
FC1F
FC3F
7FFF
7FFE
3FFC
1FF8
07F0
ENDCHAR
STARTCHAR 1ED4
ENCODING 7892
SWIDTH 750 0
DWIDTH 25 0
BBX 24 38 1 0
BITMAP
000080
0003E0
0007E0
000670
000070
0001E0
0001C0
003D80
007C00
007E00
00EE00
00E700
01C380
000000
003C00
01FF80
07FFE0
0FFFF0
1FFFF8
3FFFFC
7FC3FC
7F00FE
FE007E
FE007F
FC003F
FC003F
FC003F
FC003F
FC003F
FE007E
7E00FE
7F01FE
3FEFFC
3FFFFC
1FFFF8
0FFFF0
07FFC0
01FF80
ENDCHAR
STARTCHAR 1ED5
ENCODING 7893
SWIDTH 540 0
DWIDTH 18 0
BBX 16 31 1 0
BITMAP
001E
003F
0073
0003
000F
000E
0008
03E0
07E0
07F0
0E70
0C38
1818
0000
03E0
0FF8
3FFC
3FFE
7FFE
FE7F
FC3F
F81F
F81F
F81F
FC1F
FC3F
7FFF
7FFE
3FFC
1FF8
07F0
ENDCHAR
STARTCHAR 1ED6
ENCODING 7894
SWIDTH 750 0
DWIDTH 25 0
BBX 24 36 1 0
BITMAP
0030C0
007FC0
00FF80
00C700
000000
003C00
007C00
007E00
00EE00
00E700
01C380
000000
003C00
01FF80
07FFE0
0FFFF0
1FFFF8
3FFFFC
7FC3FC
7F00FE
FE007E
FE007F
FC003F
FC003F
FC003F
FC003F
FC003F
FE007E
7E00FE
7F01FE
3FEFFC
3FFFFC
1FFFF8
0FFFF0
07FFC0
01FF80
ENDCHAR
STARTCHAR 1ED7
ENCODING 7895
SWIDTH 540 0
DWIDTH 18 0
BBX 16 30 1 0
BITMAP
000C
07FC
07FC
0EF8
0C00
0000
03E0
07E0
07F0
0E70
0C38
1818
0000
03E0
0FF8
3FFC
3FFE
7FFE
FE7F
FC3F
F81F
F81F
F81F
FC1F
FC3F
7FFF
7FFE
3FFC
1FF8
07F0
ENDCHAR
STARTCHAR 1ED8
ENCODING 7896
SWIDTH 750 0
DWIDTH 25 0
BBX 24 40 1 -9
BITMAP
003C00
007C00
007E00
00EE00
00E700
01C380
000000
003C00
01FF80
07FFE0
0FFFF0
1FFFF8
3FFFFC
7FC3FC
7F00FE
FE007E
FE007F
FC003F
FC003F
FC003F
FC003F
FC003F
FE007E
7E00FE
7F01FE
3FEFFC
3FFFFC
1FFFF8
0FFFF0
07FFC0
01FF80
000000
000000
003800
007E00
007E00
007E00
007E00
007E00
003800
ENDCHAR
STARTCHAR 1ED9
ENCODING 7897
SWIDTH 540 0
DWIDTH 18 0
BBX 16 33 1 -9
BITMAP
03E0
07E0
07F0
0E70
0C38
1818
0000
03E0
0FF8
3FFC
3FFE
7FFE
FE7F
FC3F
F81F
F81F
F81F
FC1F
FC3F
7FFF
7FFE
3FFC
1FF8
07F0
0000
0000
01C0
07E0
07E0
07F0
07E0
07E0
01C0
ENDCHAR
STARTCHAR 1EDA
ENCODING 7898
SWIDTH 750 0
DWIDTH 25 0
BBX 24 31 1 0
BITMAP
000F00
001E00
001C00
003800
003000
007000
00000F
003C1F
01FF9E
07FFFE
0FFFFC
1FFFFC
3FFFFC
7FC3FC
7F00FE
FE007E
FE007F
FC003F
FC003F
FC003F
FC003F
FC003F
FE007E
7E00FE
7F01FE
3FEFFC
3FFFFC
1FFFF8
0FFFF0
07FFC0
01FF80
ENDCHAR
STARTCHAR 1EDB
ENCODING 7899
SWIDTH 540 0
DWIDTH 18 0
BBX 18 24 1 0
BITMAP
00F000
00E000
01E000
01C000
038000
0303C0
0007C0
03E780
0FFF80
3FFF00
3FFF00
7FFE00
FE7F00
FC3F00
F81F00
F81F00
F81F00
FC1F00
FC3F00
7FFF00
7FFE00
3FFC00
1FF800
07F000
ENDCHAR
STARTCHAR 1EDC
ENCODING 7900
SWIDTH 750 0
DWIDTH 25 0
BBX 24 31 1 0
BITMAP
00F000
007000
003800
003800
001C00
000E00
00000F
003C1F
01FF9E
07FFFE
0FFFFC
1FFFFC
3FFFFC
7FC3FC
7F00FE
FE007E
FE007F
FC003F
FC003F
FC003F
FC003F
FC003F
FE007E
7E00FE
7F01FE
3FEFFC
3FFFFC
1FFFF8
0FFFF0
07FFC0
01FF80
ENDCHAR
STARTCHAR 1EDD
ENCODING 7901
SWIDTH 540 0
DWIDTH 18 0
BBX 18 24 1 0
BITMAP
0F0000
078000
038000
01C000
00C000
00E3C0
0007C0
03E780
0FFF80
3FFF00
3FFF00
7FFE00
FE7F00
FC3F00
F81F00
F81F00
F81F00
FC1F00
FC3F00
7FFF00
7FFE00
3FFC00
1FF800
07F000
ENDCHAR
STARTCHAR 1EDE
ENCODING 7902
SWIDTH 750 0
DWIDTH 25 0
BBX 24 32 1 0
BITMAP
003C00
007E00
006600
000600
001E00
001C00
001800
00000F
003C1F
01FF9E
07FFFE
0FFFFC
1FFFFC
3FFFFC
7FC3FC
7F00FE
FE007E
FE007F
FC003F
FC003F
FC003F
FC003F
FC003F
FE007E
7E00FE
7F01FE
3FEFFC
3FFFFC
1FFFF8
0FFFF0
07FFC0
01FF80
ENDCHAR
STARTCHAR 1EDF
ENCODING 7903
SWIDTH 540 0
DWIDTH 18 0
BBX 18 26 1 0
BITMAP
008000
03E000
077000
063000
007000
01E000
01C000
0183C0
0007C0
03E780
0FFF80
3FFF00
3FFF00
7FFE00
FE7F00
FC3F00
F81F00
F81F00
F81F00
FC1F00
FC3F00
7FFF00
7FFE00
3FFC00
1FF800
07F000
ENDCHAR
STARTCHAR 1EE0
ENCODING 7904
SWIDTH 750 0
DWIDTH 25 0
BBX 24 31 1 0
BITMAP
000180
00FB80
00FF00
01FF00
018000
000000
00000F
003C1F
01FF9E
07FFFE
0FFFFC
1FFFFC
3FFFFC
7FC3FC
7F00FE
FE007E
FE007F
FC003F
FC003F
FC003F
FC003F
FC003F
FE007E
7E00FE
7F01FE
3FEFFC
3FFFFC
1FFFF8
0FFFF0
07FFC0
01FF80
ENDCHAR
STARTCHAR 1EE1
ENCODING 7905
SWIDTH 540 0
DWIDTH 18 0
BBX 18 24 1 0
BITMAP
000800
079800
0FF800
1FF000
180000
0003C0
0007C0
03E780
0FFF80
3FFF00
3FFF00
7FFE00
FE7F00
FC3F00
F81F00
F81F00
F81F00
FC1F00
FC3F00
7FFF00
7FFE00
3FFC00
1FF800
07F000
ENDCHAR
STARTCHAR 1EE2
ENCODING 7906
SWIDTH 750 0
DWIDTH 25 0
BBX 24 34 1 -9
BITMAP
00000F
003C1F
01FF9E
07FFFE
0FFFFC
1FFFFC
3FFFFC
7FC3FC
7F00FE
FE007E
FE007F
FC003F
FC003F
FC003F
FC003F
FC003F
FE007E
7E00FE
7F01FE
3FEFFC
3FFFFC
1FFFF8
0FFFF0
07FFC0
01FF80
000000
000000
003800
007E00
007E00
007E00
007E00
007E00
003800
ENDCHAR
STARTCHAR 1EE3
ENCODING 7907
SWIDTH 540 0
DWIDTH 18 0
BBX 18 28 1 -9
BITMAP
0003C0
0007C0
03E780
0FFF80
3FFF00
3FFF00
7FFE00
FE7F00
FC3F00
F81F00
F81F00
F81F00
FC1F00
FC3F00
7FFF00
7FFE00
3FFC00
1FF800
07F000
000000
000000
01C000
07E000
07E000
07F000
07E000
07E000
01C000
ENDCHAR
STARTCHAR 1EE4
ENCODING 7908
SWIDTH 600 0
DWIDTH 20 0
BBX 17 32 2 -9
BITMAP
F80F80
F80F80
F80F80
F80F80
F80F80
F80F80
F80F80
F80F80
F80F80
F80F80
F80F80
F80F80
F80F80
F80F80
F81F80
FC1F80
FC1F80
FE7F80
FFFF00
7FFF00
3FFE00
1FFC00
0FF800
000000
000000
01C000
03E000
07F000
07F000
07F000
03E000
01C000
ENDCHAR
STARTCHAR 1EE5
ENCODING 7909
SWIDTH 510 0
DWIDTH 17 0
BBX 15 26 1 -9
BITMAP
FC3E
FC3E
FC3E
FC3E
FC3E
FC3E
FC3E
FC3E
FC3E
FC3E
FC3E
7C3E
7FFE
7FFC
3FFC
1FF8
0FE0
0000
0000
0380
07E0
07E0
07E0
07E0
07E0
0180
ENDCHAR
STARTCHAR 1EE6
ENCODING 7910
SWIDTH 600 0
DWIDTH 20 0
BBX 17 32 2 0
BITMAP
01C000
03E000
073000
003000
00F000
00E000
008000
000000
000000
F80F80
F80F80
F80F80
F80F80
F80F80
F80F80
F80F80
F80F80
F80F80
F80F80
F80F80
F80F80
F80F80
F80F80
F81F80
FC1F80
FC1F80
FE7F80
FFFF00
7FFF00
3FFE00
1FFC00
0FF800
ENDCHAR
STARTCHAR 1EE7
ENCODING 7911
SWIDTH 510 0
DWIDTH 17 0
BBX 15 26 1 0
BITMAP
0180
03E0
07E0
0660
0060
01E0
0180
0180
0000
FC3E
FC3E
FC3E
FC3E
FC3E
FC3E
FC3E
FC3E
FC3E
FC3E
FC3E
7C3E
7FFE
7FFC
3FFC
1FF8
0FE0
ENDCHAR
STARTCHAR 1EE8
ENCODING 7912
SWIDTH 660 0
DWIDTH 22 0
BBX 22 31 2 0
BITMAP
00F800
00F000
01E000
01C000
038000
030000
00007C
000078
F80FF8
F80FF0
F80FF0
F80FE0
F80FE0
F80F80
F80F80
F80F80
F80F80
F80F80
F80F80
F80F80
F80F80
F80F80
F81F80
FC1F80
FC1F80
FE7F80
FFFF00
7FFF00
3FFE00
1FFC00
0FF800
ENDCHAR
STARTCHAR 1EE9
ENCODING 7913
SWIDTH 570 0
DWIDTH 19 0
BBX 19 24 1 0
BITMAP
00F000
00E000
01C000
038000
038000
0701E0
0001E0
FC3FC0
FC3FC0
FC3F80
FC3F80
FC3F00
FC3E00
FC3E00
FC3E00
FC3E00
FC3E00
FC3E00
7C3E00
7FFE00
7FFC00
3FFC00
1FF800
0FE000
ENDCHAR
STARTCHAR 1EEA
ENCODING 7914
SWIDTH 660 0
DWIDTH 22 0
BBX 22 31 2 0
BITMAP
0F0000
078000
038000
01C000
00C000
006000
00007C
000078
F80FF8
F80FF0
F80FF0
F80FE0
F80FE0
F80F80
F80F80
F80F80
F80F80
F80F80
F80F80
F80F80
F80F80
F80F80
F81F80
FC1F80
FC1F80
FE7F80
FFFF00
7FFF00
3FFE00
1FFC00
0FF800
ENDCHAR
STARTCHAR 1EEB
ENCODING 7915
SWIDTH 570 0
DWIDTH 19 0
BBX 19 24 1 0
BITMAP
0F0000
070000
038000
038000
01C000
00C1E0
0001E0
FC3FC0
FC3FC0
FC3F80
FC3F80
FC3F00
FC3E00
FC3E00
FC3E00
FC3E00
FC3E00
FC3E00
7C3E00
7FFE00
7FFC00
3FFC00
1FF800
0FE000
ENDCHAR
STARTCHAR 1EEC
ENCODING 7916
SWIDTH 660 0
DWIDTH 22 0
BBX 22 32 2 0
BITMAP
01C000
03E000
073000
003000
00F000
00E000
008000
00007C
000078
F80FF8
F80FF0
F80FF0
F80FE0
F80FE0
F80F80
F80F80
F80F80
F80F80
F80F80
F80F80
F80F80
F80F80
F80F80
F81F80
FC1F80
FC1F80
FE7F80
FFFF00
7FFF00
3FFE00
1FFC00
0FF800
ENDCHAR
STARTCHAR 1EED
ENCODING 7917
SWIDTH 570 0
DWIDTH 19 0
BBX 19 26 1 0
BITMAP
018000
03E000
07E000
066000
006000
01E000
018000
0181E0
0001E0
FC3FC0
FC3FC0
FC3F80
FC3F80
FC3F00
FC3E00
FC3E00
FC3E00
FC3E00
FC3E00
FC3E00
7C3E00
7FFE00
7FFC00
3FFC00
1FF800
0FE000
ENDCHAR
STARTCHAR 1EEE
ENCODING 7918
SWIDTH 660 0
DWIDTH 22 0
BBX 22 31 2 0
BITMAP
000800
079800
0FF800
1FF000
180000
000000
00007C
000078
F80FF8
F80FF0
F80FF0
F80FE0
F80FE0
F80F80
F80F80
F80F80
F80F80
F80F80
F80F80
F80F80
F80F80
F80F80
F81F80
FC1F80
FC1F80
FE7F80
FFFF00
7FFF00
3FFE00
1FFC00
0FF800
ENDCHAR
STARTCHAR 1EEF
ENCODING 7919
SWIDTH 570 0
DWIDTH 19 0
BBX 19 24 1 0
BITMAP
001800
071800
0FF000
1FF000
180000
0001E0
0001E0
FC3FC0
FC3FC0
FC3F80
FC3F80
FC3F00
FC3E00
FC3E00
FC3E00
FC3E00
FC3E00
FC3E00
7C3E00
7FFE00
7FFC00
3FFC00
1FF800
0FE000
ENDCHAR
STARTCHAR 1EF0
ENCODING 7920
SWIDTH 660 0
DWIDTH 22 0
BBX 22 34 2 -9
BITMAP
00007C
000078
F80FF8
F80FF0
F80FF0
F80FE0
F80FE0
F80F80
F80F80
F80F80
F80F80
F80F80
F80F80
F80F80
F80F80
F80F80
F81F80
FC1F80
FC1F80
FE7F80
FFFF00
7FFF00
3FFE00
1FFC00
0FF800
000000
000000
01C000
03E000
07F000
07F000
07F000
03E000
01C000
ENDCHAR
STARTCHAR 1EF1
ENCODING 7921
SWIDTH 570 0
DWIDTH 19 0
BBX 19 28 1 -9
BITMAP
0001E0
0001E0
FC3FC0
FC3FC0
FC3F80
FC3F80
FC3F00
FC3E00
FC3E00
FC3E00
FC3E00
FC3E00
FC3E00
7C3E00
7FFE00
7FFC00
3FFC00
1FF800
0FE000
000000
000000
038000
07E000
07E000
07E000
07E000
07E000
018000
ENDCHAR
STARTCHAR 1EF2
ENCODING 7922
SWIDTH 540 0
DWIDTH 18 0
BBX 17 31 1 0
BITMAP
0F0000
078000
038000
01C000
00C000
006000
000000
000000
FC1F80
FC1F80
FC1F80
FC1F80
FC1F80
FC1F80
FC1F80
FC1F80
7C1F00
7E3F00
7FFF00
3FFE00
3FFE00
1FFC00
07F000
03E000
03E000
03E000
03E000
03E000
03E000
03E000
03E000
ENDCHAR
STARTCHAR 1EF3
ENCODING 7923
SWIDTH 510 0
DWIDTH 17 0
BBX 15 31 1 -7
BITMAP
0F00
0700
0380
0380
01C0
00C0
0000
FC3E
FC3E
FC3E
FC3E
FC3E
FC3E
FC3E
FC3E
FC3E
FC3E
FC3E
7C3E
7FFE
7FFE
3FFC
1FF8
0FF0
07C0
07C0
07C0
07C0
07C0
07C0
07C0
ENDCHAR
STARTCHAR 1EF4
ENCODING 7924
SWIDTH 540 0
DWIDTH 18 0
BBX 17 32 1 -9
BITMAP
FC1F80
FC1F80
FC1F80
FC1F80
FC1F80
FC1F80
FC1F80
FC1F80
7C1F00
7E3F00
7FFF00
3FFE00
3FFE00
1FFC00
07F000
03E000
03E000
03E000
03E000
03E000
03E000
03E000
03E000
000000
000000
01C000
03E000
07F000
07F000
07F000
03E000
01C000
ENDCHAR
STARTCHAR 1EF5
ENCODING 7925
SWIDTH 510 0
DWIDTH 17 0
BBX 16 26 1 -9
BITMAP
FC3E
FC3E
FC3E
FC3E
FC3E
FC3E
FC3E
FC3E
FC3E
FC3E
FC3E
7C3E
7FFE
7FFE
3FFC
1FF8
0FF0
07C0
07C0
07DE
07FF
07FF
07FF
07FF
003F
000C
ENDCHAR
STARTCHAR 1EF6
ENCODING 7926
SWIDTH 540 0
DWIDTH 18 0
BBX 17 32 1 0
BITMAP
01C000
03E000
073000
003000
00F000
00E000
008000
000000
000000
FC1F80
FC1F80
FC1F80
FC1F80
FC1F80
FC1F80
FC1F80
FC1F80
7C1F00
7E3F00
7FFF00
3FFE00
3FFE00
1FFC00
07F000
03E000
03E000
03E000
03E000
03E000
03E000
03E000
03E000
ENDCHAR
STARTCHAR 1EF7
ENCODING 7927
SWIDTH 510 0
DWIDTH 17 0
BBX 15 33 1 -7
BITMAP
0180
03E0
07E0
0660
0060
01E0
0180
0180
0000
FC3E
FC3E
FC3E
FC3E
FC3E
FC3E
FC3E
FC3E
FC3E
FC3E
FC3E
7C3E
7FFE
7FFE
3FFC
1FF8
0FF0
07C0
07C0
07C0
07C0
07C0
07C0
07C0
ENDCHAR
STARTCHAR 1EF8
ENCODING 7928
SWIDTH 540 0
DWIDTH 18 0
BBX 17 31 1 0
BITMAP
000C00
07D800
0FF800
0FF000
180000
000000
000000
000000
FC1F80
FC1F80
FC1F80
FC1F80
FC1F80
FC1F80
FC1F80
FC1F80
7C1F00
7E3F00
7FFF00
3FFE00
3FFE00
1FFC00
07F000
03E000
03E000
03E000
03E000
03E000
03E000
03E000
03E000
ENDCHAR
STARTCHAR 1EF9
ENCODING 7929
SWIDTH 510 0
DWIDTH 17 0
BBX 15 31 1 -7
BITMAP
0018
0718
0FF0
1FF0
1800
0000
0000
FC3E
FC3E
FC3E
FC3E
FC3E
FC3E
FC3E
FC3E
FC3E
FC3E
FC3E
7C3E
7FFE
7FFE
3FFC
1FF8
0FF0
07C0
07C0
07C0
07C0
07C0
07C0
07C0
ENDCHAR
STARTCHAR 2010
ENCODING 8208
SWIDTH 330 0
DWIDTH 11 0
BBX 9 4 1 6
BITMAP
FF80
FF80
FF80
FF80
ENDCHAR
STARTCHAR 2013
ENCODING 8211
SWIDTH 480 0
DWIDTH 16 0
BBX 17 4 0 6
BITMAP
FFFF80
FFFF80
FFFF80
FFFF80
ENDCHAR
STARTCHAR 2014
ENCODING 8212
SWIDTH 990 0
DWIDTH 33 0
BBX 33 4 0 6
BITMAP
FFFFFFFF80
FFFFFFFF80
FFFFFFFF80
FFFFFFFF80
ENDCHAR
STARTCHAR 2018
ENCODING 8216
SWIDTH 270 0
DWIDTH 9 0
BBX 5 7 2 16
BITMAP
38
38
78
78
78
78
F8
ENDCHAR
STARTCHAR 2019
ENCODING 8217
SWIDTH 270 0
DWIDTH 9 0
BBX 6 7 2 16
BITMAP
7C
78
78
78
78
70
F0
ENDCHAR
STARTCHAR 201A
ENCODING 8218
SWIDTH 270 0
DWIDTH 9 0
BBX 5 8 2 -4
BITMAP
78
78
78
78
F0
F0
F0
F0
ENDCHAR
STARTCHAR 201C
ENCODING 8220
SWIDTH 480 0
DWIDTH 16 0
BBX 12 7 2 16
BITMAP
3870
38F0
78F0
78F0
78F0
79F0
F9E0
ENDCHAR
STARTCHAR 201D
ENCODING 8221
SWIDTH 480 0
DWIDTH 16 0
BBX 12 7 2 16
BITMAP
7CF0
78F0
78F0
78F0
79E0
71E0
F1E0
ENDCHAR
STARTCHAR 201E
ENCODING 8222
SWIDTH 480 0
DWIDTH 16 0
BBX 12 8 2 -4
BITMAP
78F0
78F0
78F0
79E0
F1E0
F1E0
F1E0
F1C0
ENDCHAR
STARTCHAR 2020
ENCODING 8224
SWIDTH 480 0
DWIDTH 16 0
BBX 15 25 1 -2
BITMAP
07C0
07C0
07C0
07C0
07C0
FFFE
FFFE
FFFE
FFFE
07C0
07C0
07C0
07C0
07C0
07C0
07C0
07C0
07C0
07C0
07C0
07C0
07C0
07C0
07C0
07C0
ENDCHAR
STARTCHAR 2021
ENCODING 8225
SWIDTH 480 0
DWIDTH 16 0
BBX 15 25 1 -2
BITMAP
07C0
07C0
07C0
07C0
07C0
FFFE
FFFE
FFFE
FFFE
07C0
07C0
07C0
07C0
07C0
FFFE
FFFE
FFFE
FFFE
07C0
07C0
07C0
07C0
07C0
07C0
07C0
ENDCHAR
STARTCHAR 2022
ENCODING 8226
SWIDTH 570 0
DWIDTH 19 0
BBX 10 9 5 8
BITMAP
3E00
7F00
FF80
FF80
FFC0
FFC0
FF80
7F80
3F00
ENDCHAR
STARTCHAR 2026
ENCODING 8230
SWIDTH 990 0
DWIDTH 33 0
BBX 29 6 2 0
BITMAP
7C0780F0
7E0FC1F8
FE1FC3F8
FE1FC3F8
FE0FC1F8
7C0F81F0
ENDCHAR
STARTCHAR 2030
ENCODING 8240
SWIDTH 1260 0
DWIDTH 42 0
BBX 40 23 1 0
BITMAP
1F801C0000
3FC0380000
7FE0780000
79F0700000
F0F0F00000
F071E00000
F0F1C00000
F8F3C00000
7FF3800000
7FE7000000
3FCF000000
060E1E00F8
001E7F83FC
003CFFC7FE
0039FFC7FF
0079E1EF0F
0071E1EF0F
00E1E1EF07
01E1E1EF0F
01C1FFC7FF
03C0FFC7FE
07807F83FC
07003F00F8
ENDCHAR
STARTCHAR 2039
ENCODING 8249
SWIDTH 330 0
DWIDTH 11 0
BBX 7 10 2 3
BITMAP
1E
3C
38
78
F0
70
78
3C
1E
0E
ENDCHAR
STARTCHAR 203A
ENCODING 8250
SWIDTH 330 0
DWIDTH 11 0
BBX 7 10 2 3
BITMAP
F0
78
3C
1E
0E
1E
3C
38
78
F0
ENDCHAR
STARTCHAR 2044
ENCODING 8260
SWIDTH 150 0
DWIDTH 5 0
BBX 16 23 -5 0
BITMAP
000F
000E
001E
001C
0038
0078
0070
00F0
00E0
01C0
01C0
0380
0780
0700
0F00
0E00
1C00
1C00
3800
7800
7000
F000
E000
ENDCHAR
STARTCHAR 20A3
ENCODING 8355
SWIDTH 810 0
DWIDTH 27 0
BBX 25 23 2 0
BITMAP
1FF00000
3FF00000
7FF00000
FFF00000
FFF00000
FC000000
FC01F000
F801F780
F801FF80
FFF1FF80
FFF1FF80
FFF1FF80
FFF1F800
FFF1F800
FFF1F000
F801F000
F801F000
F801F000
F801F000
F801F000
F801F000
F801F000
F801F000
ENDCHAR
STARTCHAR 20AB
ENCODING 8363
SWIDTH 420 0
DWIDTH 14 0
BBX 13 22 1 2
BITMAP
00F0
00F0
07F8
07F8
00F0
0EF0
3EF0
7EF0
FEF0
F0F0
F0F0
F0F0
F0F0
F9F0
FFE0
7FE0
3FC0
0E00
0000
0000
7FE0
7FE0
ENDCHAR
STARTCHAR 2122
ENCODING 8482
SWIDTH 810 0
DWIDTH 27 0
BBX 21 9 3 15
BITMAP
FF3C78
FF3C78
1C3CF8
1C3EF8
1C3EF8
1C3BB8
1C3BB8
1C3BB8
1C3938
ENDCHAR
STARTCHAR 2126
ENCODING 8486
SWIDTH 780 0
DWIDTH 26 0
BBX 25 25 1 0
BITMAP
001C0000
01FFC000
07FFF000
0FFFF800
1FFFFC00
3FFFFC00
3F81FE00
7F00FE00
7F007F00
7E007F00
7E003F00
7E003F00
7E003F00
7E003F00
7E003F00
7E007E00
3F007E00
1F00FC00
1F81F800
0FC1F000
FFC1FF80
FFC1FF80
FFC1FF80
FFC1FF80
FFC1FF80
ENDCHAR
STARTCHAR 2202
ENCODING 8706
SWIDTH 540 0
DWIDTH 18 0
BBX 16 22 1 0
BITMAP
03F0
0FF8
0F8C
0F0E
060E
000F
000F
000F
0F8F
1FCF
3C2F
7C3F
F83F
F83F
F83F
F03E
F03E
F03C
F03C
7878
38F0
1FE0
ENDCHAR
STARTCHAR 2206
ENCODING 8710
SWIDTH 690 0
DWIDTH 23 0
BBX 24 24 0 0
BITMAP
007E00
00FF00
00FF00
01FF00
01FF80
01FF80
03FFC0
03FFC0
03E7C0
07E7E0
07E7E0
07C3E0
0FC3F0
0FC3F0
1F81F0
1F81F8
1F81F8
3F00FC
3F00FC
3FFFFC
7FFFFE
7FFFFE
7FFFFE
FFFFFF
ENDCHAR
STARTCHAR 220F
ENCODING 8719
SWIDTH 780 0
DWIDTH 26 0
BBX 22 30 2 -6
BITMAP
FFFFFC
FFFFFC
FFFFFC
FFFFFC
FFFFFC
FE00FC
FE00FC
FE00FC
FE00FC
FE00FC
FE00FC
FE00FC
FE00FC
FE00FC
FE00FC
FE00FC
FE00FC
FE00FC
FE00FC
FE00FC
FE00FC
FE00FC
FE00FC
FE00FC
FE00FC
FE00FC
FE00FC
FE00FC
FE00FC
FE00FC
ENDCHAR
STARTCHAR 2211
ENCODING 8721
SWIDTH 720 0
DWIDTH 24 0
BBX 23 30 1 -6
BITMAP
FFFFFC
FFFFFC
FFFFFC
FFFFFC
FFFFFC
7F8000
3FC000
1FE000
0FF000
07F800
03FC00
01FE00
00FF00
007F80
003FC0
001F80
003F00
007F00
00FE00
01FC00
03F800
07F000
0FE000
1FC000
3F8000
7FFFFE
7FFFFE
FFFFFE
FFFFFE
FFFFFE
ENDCHAR
STARTCHAR 2212
ENCODING 8722
SWIDTH 810 0
DWIDTH 27 0
BBX 20 4 4 8
BITMAP
FFFFF0
FFFFF0
FFFFF0
FFFFF0
ENDCHAR
STARTCHAR 2219
ENCODING 8729
SWIDTH 270 0
DWIDTH 9 0
BBX 7 6 1 9
BITMAP
3C
7E
FE
FE
7E
7C
ENDCHAR
STARTCHAR 221A
ENCODING 8730
SWIDTH 660 0
DWIDTH 22 0
BBX 21 29 1 -1
BITMAP
000038
000078
000078
000060
0000E0
0000E0
0001C0
0001C0
0001C0
000380
000380
000300
0C0700
7E0700
FE0E00
5E0E00
0F0E00
0F1C00
079C00
079C00
07B800
03F800
03F000
03F000
01F000
01E000
01E000
00E000
00C000
ENDCHAR
STARTCHAR 221E
ENCODING 8734
SWIDTH 810 0
DWIDTH 27 0
BBX 22 14 3 3
BITMAP
0E01C0
3F07E0
7F8FF0
7FDFF8
F1FF38
E07C18
C0780C
C0F80C
C0F81C
E1FC38
7FFFF8
7FCFF8
3F87F0
0F03C0
ENDCHAR
STARTCHAR 222B
ENCODING 8747
SWIDTH 600 0
DWIDTH 20 0
BBX 19 31 1 -6
BITMAP
000F80
003FC0
003BE0
0073C0
0071C0
00F000
00F000
00F000
00F000
01F000
01F000
01F000
01E000
01E000
01E000
01E000
01E000
01E000
01E000
01E000
01E000
01E000
01E000
01E000
03C000
03C000
F3C000
F38000
F38000
FF0000
7C0000
ENDCHAR
STARTCHAR 2248
ENCODING 8776
SWIDTH 810 0
DWIDTH 27 0
BBX 22 14 3 3
BITMAP
020004
3FE00C
FFFE7C
FFFFFC
F9FFFC
C01FF0
800000
000004
3FE00C
FFFE7C
FFFFFC
FDFFFC
C01FF0
800100
ENDCHAR
STARTCHAR 2260
ENCODING 8800
SWIDTH 810 0
DWIDTH 27 0
BBX 20 20 4 -1
BITMAP
000180
0003C0
0007C0
000F80
000F00
FFFFF0
FFFFF0
FFFFF0
007800
00F000
01F000
03E000
FFFFF0
FFFFF0
FFFFF0
FFFFF0
1E0000
3E0000
3C0000
180000
ENDCHAR
STARTCHAR 2264
ENCODING 8804
SWIDTH 810 0
DWIDTH 27 0
BBX 20 20 4 0
BITMAP
000070
0007F0
003FF0
01FFE0
0FFF00
7FF800
FFC000
FF0000
FFE000
3FFC00
07FF80
00FFF0
001FF0
0003F0
000030
000000
000000
FFFFF0
FFFFF0
FFFFF0
ENDCHAR
STARTCHAR 2265
ENCODING 8805
SWIDTH 810 0
DWIDTH 27 0
BBX 20 20 4 0
BITMAP
E00000
FC0000
FFC000
FFF800
0FFF00
01FFE0
003FF0
000FF0
007FF0
03FFC0
1FFE00
FFF000
FF8000
F80000
C00000
000000
000000
FFFFF0
FFFFF0
FFFFF0
ENDCHAR
STARTCHAR 22F2
ENCODING 8946
SWIDTH 810 0
DWIDTH 27 0
BBX 22 14 3 3
BITMAP
020004
3FE00C
FFFE7C
FFFFFC
F9FFFC
C01FF0
800000
000004
3FE00C
FFFE7C
FFFFFC
FDFFFC
C01FF0
800100
ENDCHAR
STARTCHAR 255F
ENCODING 9567
SWIDTH 600 0
DWIDTH 20 0
BBX 17 24 2 0
BITMAP
03C000
0FF800
3FFC00
3FFE00
7FFF00
FFFF00
FE3F80
FC1F80
F81F80
F80F80
FBFF80
FBFF80
FBFF80
FBFF80
FBFF80
F80F80
F80F80
F80F80
F80F80
F80F80
F80F80
F80F80
F80F80
F80F80
ENDCHAR
STARTCHAR 2560
ENCODING 9568
SWIDTH 510 0
DWIDTH 17 0
BBX 15 23 1 0
BITMAP
00FE
03FE
0FFE
1FFE
3FFE
7FC0
7F00
FE00
FC00
FFFE
FFFE
FFFE
FFFE
FFFE
FE00
7E00
7F00
3FF0
3FFE
1FFE
0FFE
03FE
007E
ENDCHAR
STARTCHAR 2561
ENCODING 9569
SWIDTH 270 0
DWIDTH 9 0
BBX 6 23 2 0
BITMAP
FC
FC
FC
FC
FC
FC
FC
FC
FC
FC
FC
FC
FC
FC
FC
FC
FC
FC
FC
FC
FC
FC
FC
ENDCHAR
STARTCHAR 2562
ENCODING 9570
SWIDTH 750 0
DWIDTH 25 0
BBX 24 24 1 0
BITMAP
003C00
01FF80
07FFE0
0FFFF0
1FFFF8
3FFFFC
7FC3FC
7F00FE
FE007E
FE007F
FC003F
FC003F
FC003F
FC003F
FC003F
FE007E
7E00FE
7F01FE
3FEFFC
3FFFFC
1FFFF8
0FFFF0
07FFC0
01FF80
ENDCHAR
STARTCHAR 2563
ENCODING 9571
SWIDTH 600 0
DWIDTH 20 0
BBX 17 23 2 0
BITMAP
F80F80
F80F80
F80F80
F80F80
F80F80
F80F80
F80F80
F80F80
F80F80
F80F80
F80F80
F80F80
F80F80
F80F80
F81F80
FC1F80
FC1F80
FE7F80
FFFF00
7FFF00
3FFE00
1FFC00
0FF800
ENDCHAR
STARTCHAR 2564
ENCODING 9572
SWIDTH 540 0
DWIDTH 18 0
BBX 17 23 1 0
BITMAP
FC1F80
FC1F80
FC1F80
FC1F80
FC1F80
FC1F80
FC1F80
FC1F80
7C1F00
7E3F00
7FFF00
3FFE00
3FFE00
1FFC00
07F000
03E000
03E000
03E000
03E000
03E000
03E000
03E000
03E000
ENDCHAR
STARTCHAR 2565
ENCODING 9573
SWIDTH 540 0
DWIDTH 18 0
BBX 16 17 1 0
BITMAP
03C0
1FF8
3FFC
7FFE
7FFE
FFFF
FC1F
F81F
F81F
F81F
FC1F
FC1F
7FDF
7FDF
3FDF
1FDF
0FDF
ENDCHAR
STARTCHAR 2566
ENCODING 9574
SWIDTH 540 0
DWIDTH 18 0
BBX 17 17 1 0
BITMAP
03E000
0FF800
3FFC00
3FFE00
7E3E00
FC7F00
F8FC00
FBF800
FBE000
F9C400
F80F00
FC1F80
7FFF00
7FFF00
3FFE00
1FFC00
07F000
ENDCHAR
STARTCHAR 2567
ENCODING 9575
SWIDTH 240 0
DWIDTH 8 0
BBX 6 24 1 0
BITMAP
38
7C
FC
FC
FC
78
00
7C
7C
7C
7C
7C
7C
7C
7C
7C
7C
7C
7C
7C
7C
7C
7C
7C
ENDCHAR
STARTCHAR 2568
ENCODING 9576
SWIDTH 240 0
DWIDTH 8 0
BBX 5 17 2 0
BITMAP
F8
F8
F8
F8
F8
F8
F8
F8
F8
F8
F8
F8
F8
F8
F8
F8
F8
ENDCHAR
STARTCHAR 2569
ENCODING 9577
SWIDTH 540 0
DWIDTH 18 0
BBX 16 17 1 0
BITMAP
03E0
0FF8
3FFC
3FFE
7FFE
FE7F
FC3F
F81F
F81F
F81F
FC1F
FC3F
7FFF
7FFE
3FFC
1FF8
07F0
ENDCHAR
STARTCHAR 256A
ENCODING 9578
SWIDTH 510 0
DWIDTH 17 0
BBX 15 17 1 0
BITMAP
FC3E
FC3E
FC3E
FC3E
FC3E
FC3E
FC3E
FC3E
FC3E
FC3E
FC3E
7C3E
7FFE
7FFC
3FFC
1FF8
0FE0
ENDCHAR
STARTCHAR 256B
ENCODING 9579
SWIDTH 510 0
DWIDTH 17 0
BBX 15 24 1 -7
BITMAP
FC3E
FC3E
FC3E
FC3E
FC3E
FC3E
FC3E
FC3E
FC3E
FC3E
FC3E
7C3E
7FFE
7FFE
3FFC
1FF8
0FF0
07C0
07C0
07C0
07C0
07C0
07C0
07C0
ENDCHAR
STARTCHAR 25CA
ENCODING 9674
SWIDTH 480 0
DWIDTH 16 0
BBX 16 33 0 -7
BITMAP
0080
0180
01C0
03C0
0360
0660
0630
0C30
0C18
1818
180C
300C
3006
6006
6003
C003
C003
6003
6006
2006
3004
300C
180C
1818
0C18
0C30
0630
0660
0360
03C0
01C0
0180
0080
ENDCHAR
STARTCHAR 25CB
ENCODING 9675
SWIDTH 600 0
DWIDTH 20 0
BBX 9 12 6 25
BITMAP
1E00
3C00
3800
7000
7000
E000
3C00
3E00
7F00
7700
E380
C180
ENDCHAR
STARTCHAR 25CF
ENCODING 9679
SWIDTH 600 0
DWIDTH 20 0
BBX 9 12 6 25
BITMAP
3C00
1C00
0E00
0F00
0700
0380
3C00
3E00
7F00
7700
E380
C180
ENDCHAR
STARTCHAR 25D8
ENCODING 9688
SWIDTH 600 0
DWIDTH 20 0
BBX 12 12 6 26
BITMAP
01E0
03F0
0330
0030
00F0
00C0
3CC0
3E00
7F00
7700
E380
C180
ENDCHAR
STARTCHAR 25D9
ENCODING 9689
SWIDTH 600 0
DWIDTH 20 0
BBX 10 11 6 25
BITMAP
1040
7FC0
7FC0
C700
0000
3C00
3E00
7F00
7700
E380
C180
ENDCHAR
STARTCHAR F000
ENCODING 61440
SWIDTH 780 0
DWIDTH 26 0
BBX 22 27 2 -1
BITMAP
000180
000780
000780
000F00
000E00
000C00
0FC3E0
1FFFF8
3FFFFC
7FFFF8
FFFFF0
FFFFE0
FFFFE0
FFFFE0
FFFFE0
FFFFE0
FFFFE0
FFFFF0
7FFFF8
7FFFFC
7FFFFC
3FFFF8
3FFFF8
1FFFF0
0FFFF0
07FFE0
010180
ENDCHAR
STARTCHAR F001
ENCODING 61441
SWIDTH 540 0
DWIDTH 18 0
BBX 16 24 2 0
BITMAP
001C
1FBE
7FBF
FFBF
FFBE
FF9E
F800
FFBE
FFBE
FFBE
FFBE
FFBE
F83E
F83E
F83E
F83E
F83E
F83E
F83E
F83E
F83E
F83E
F83E
F83E
ENDCHAR
STARTCHAR F002
ENCODING 61442
SWIDTH 540 0
DWIDTH 18 0
BBX 15 23 2 0
BITMAP
1FBE
7FBE
FFBE
FFBE
FFBE
F83E
FFBE
FFBE
FFBE
FFBE
FFBE
F83E
F83E
F83E
F83E
F83E
F83E
F83E
F83E
F83E
F83E
F83E
F83E
ENDCHAR
ENDFONT
